<svg width="137" height="134" viewBox="0 0 137 134" fill="none" xmlns="http://www.w3.org/2000/svg">
<path d="M77.6748 18.744C77.6423 18.7344 77.5804 18.7381 77.5397 18.756C77.4824 18.7808 73.7058 23.3288 56.6018 43.9776C45.1233 57.8321 35.7204 69.1842 35.7052 69.2026C35.6862 69.2212 35.6368 69.2319 35.591 69.2249C35.5154 69.214 35.5067 69.2067 35.4601 69.0719C35.4287 68.9942 35.3877 68.8571 35.3625 68.7675C35.3391 68.6758 35.311 68.5941 35.3001 68.585C35.2892 68.576 35.269 68.5249 35.2565 68.4732C35.2418 68.4198 35.216 68.3399 35.1984 68.2944C35.177 68.2492 35.1227 68.1148 35.0759 67.9935C35.0274 67.8742 34.979 67.755 34.97 67.7303C34.9592 67.7077 34.9342 67.6491 34.9123 67.6C34.8925 67.5527 34.8599 67.4809 34.8395 67.4434C34.819 67.4058 34.7718 67.3117 34.7349 67.2364C34.6957 67.1592 34.6553 67.0879 34.6422 67.0771C34.6269 67.0644 34.6152 67.0341 34.6157 67.0069C34.6161 66.9798 34.5779 66.9103 34.5334 66.8529C34.4907 66.7934 34.4416 66.7149 34.4294 66.6807C34.4167 66.6427 34.3752 66.5773 34.3404 66.5348C34.3057 66.4923 34.2663 66.4287 34.2541 66.3945C34.2419 66.3604 34.2026 66.2968 34.1678 66.2543C34.1331 66.2118 34.0915 66.1464 34.0767 66.1066C34.064 66.0686 34.0105 65.9864 33.9557 65.9238C33.9047 65.8609 33.8539 65.7845 33.8499 65.7537C33.8438 65.7211 33.7891 65.6449 33.7304 65.5825C33.6716 65.5201 33.6002 65.4197 33.5734 65.3631C33.5462 65.3027 33.4964 65.2339 33.4636 65.2068C33.4309 65.1797 33.3762 65.1035 33.3451 65.0433C33.3134 64.9793 33.2141 64.8592 33.127 64.7733C33.0377 64.6856 32.9335 64.558 32.8936 64.4906C32.8554 64.4212 32.7663 64.3199 32.6964 64.262C32.6304 64.2039 32.5462 64.1101 32.5117 64.054C32.4772 63.9979 32.2742 63.7851 32.0585 63.579C31.8466 63.3726 31.6337 63.1585 31.5893 63.1011C31.5448 63.0436 31.1767 62.7148 30.7648 62.3633C30.158 61.8472 29.9603 61.6903 29.6981 61.518C29.5213 61.4026 29.1789 61.1672 28.9361 60.9937C28.6955 60.822 28.4377 60.6533 28.3635 60.6229C28.2911 60.5904 28.1744 60.5179 28.1045 60.46C28.0369 60.404 27.9016 60.3229 27.8065 60.2821C27.7132 60.2392 27.534 60.1356 27.4099 60.05C27.2835 59.9626 27.1591 59.8905 27.1298 59.8904C27.1022 59.8882 27.0232 59.8502 26.9548 59.8039C26.8842 59.7558 26.7696 59.6987 26.6981 59.6739C26.6266 59.6492 26.501 59.583 26.4156 59.5261C26.3325 59.471 26.2304 59.4209 26.1946 59.4153C26.1548 59.4099 26.0698 59.3704 26.0057 59.3278C25.94 59.2871 25.8484 59.2422 25.8021 59.2314C25.7537 59.2188 25.6499 59.1707 25.5716 59.1231C25.4933 59.0755 25.3709 59.0188 25.2999 58.9979C25.2311 58.9788 25.1504 58.9429 25.122 58.9194C25.0958 58.8977 25.0216 58.8672 24.9593 58.8535C24.8949 58.838 24.8186 58.8058 24.7902 58.7823C24.7618 58.7588 24.669 58.7198 24.5859 58.6957C24.4015 58.6428 24.2844 58.5974 24.0951 58.5061C24.0161 58.4681 23.9242 58.4368 23.8911 58.4369C23.8601 58.4388 23.815 58.4221 23.791 58.4022C23.7691 58.3841 23.6851 58.3523 23.6046 58.3339C23.5242 58.3155 23.4423 58.2855 23.4204 58.2674C23.3986 58.2493 23.3376 58.2297 23.2818 58.2214C23.2283 58.215 23.1694 58.1972 23.152 58.1827C23.1345 58.1683 23.0647 58.1414 22.9998 58.1221C22.9327 58.1009 22.7945 58.0588 22.6906 58.0243C22.5883 57.9878 22.4502 57.9457 22.3853 57.9263C21.9126 57.7861 21.5966 57.6965 21.5046 57.6787C21.4786 57.6745 21.3553 57.6412 21.232 57.6079C21.1087 57.5746 20.9854 57.5413 20.9594 57.537C20.9335 57.5327 20.8647 57.5136 20.808 57.4976C20.753 57.4796 20.6484 57.4549 20.5767 57.4437C20.5067 57.4304 20.4163 57.4107 20.3739 57.3996C20.2765 57.3706 20.2583 57.3659 20.0537 57.3375C19.827 57.3046 19.7729 57.2942 19.6363 57.2637C19.5762 57.2518 19.5012 57.2447 19.4724 57.2483C19.4397 57.2522 19.4038 57.2466 19.3907 57.2358C19.3624 57.2123 19.1214 57.1744 18.5674 57.1011C18.3611 57.0747 18.1487 57.0468 18.093 57.0385C18.0395 57.032 17.8716 57.0169 17.7198 57.0047C17.5701 56.9943 17.3139 56.9749 17.1483 56.9616C16.8407 56.9374 16.2143 56.9072 16.176 56.9134C16.1533 56.9186 15.6138 56.9123 15.3906 56.9064C15.0574 56.8954 13.7657 56.9886 13.3351 57.0553C13.14 57.0864 12.8331 57.1281 12.5407 57.1612C12.4328 57.1716 12.3396 57.1908 12.3311 57.201C12.3244 57.2092 12.2755 57.2237 12.2257 57.2306C12.0911 57.2465 11.9747 57.2671 11.8442 57.3001C11.7799 57.3156 11.649 57.3448 11.5536 57.3622C11.3191 57.4054 11.0454 57.4781 10.8231 57.5555C10.7259 57.5885 10.6076 57.6247 10.5659 57.635C10.5204 57.6455 10.4759 57.6637 10.4658 57.6759C10.4557 57.6881 10.4201 57.7 10.3864 57.6962C10.3533 57.6962 10.2928 57.7115 10.2466 57.7318C10.2021 57.7499 10.1109 57.7845 10.0431 57.8041C9.93257 57.8399 9.82638 57.8792 9.61497 57.9656C9.57047 57.9838 9.51096 58.0068 9.48434 58.0123C9.45991 58.0196 9.40984 58.04 9.37308 58.0578C9.12084 58.1757 8.82409 58.3119 8.67388 58.3733C8.61994 58.394 8.54522 58.4353 8.50825 58.4666C8.47079 58.4941 8.41735 58.5186 8.38974 58.5164C8.36431 58.516 8.30192 58.5469 8.25651 58.5884C8.2089 58.6281 8.12574 58.6797 8.0718 58.7004C8.01786 58.7211 7.93976 58.7665 7.89892 58.7981C7.85808 58.8296 7.79449 58.8664 7.75675 58.8764C7.72287 58.8862 7.63464 58.9439 7.56627 59.0042C7.49571 59.0628 7.4186 59.1159 7.39367 59.1194C7.37093 59.1246 7.29502 59.1718 7.22784 59.2263C7.16116 59.2846 7.06955 59.3464 7.02335 59.3666C6.97716 59.3868 6.85513 59.4853 6.75127 59.5885C6.6491 59.6897 6.52925 59.79 6.48742 59.8138C6.44728 59.8357 6.30716 59.9604 6.17964 60.0922C6.05212 60.224 5.89679 60.3672 5.83151 60.406C5.68018 60.5043 5.32193 60.937 5.21471 61.151C5.17135 61.2389 5.0744 61.396 4.99864 61.5053C4.92239 61.6107 4.82474 61.7775 4.78067 61.8752C4.73829 61.9709 4.65246 62.1234 4.59191 62.2143C4.53136 62.3052 4.48004 62.4072 4.47505 62.4444C4.47224 62.4833 4.44288 62.5588 4.40937 62.617C4.37368 62.6735 4.34481 62.7528 4.33813 62.792C4.33532 62.8309 4.30357 62.9182 4.26549 62.9864C4.23127 63.0544 4.2029 63.1375 4.20516 63.1704C4.20742 63.2032 4.19905 63.2444 4.18553 63.2608C4.17201 63.2771 4.14533 63.3582 4.1269 63.4427C4.10677 63.5292 4.07671 63.6144 4.05982 63.6349C4.04461 63.6532 4.02997 63.7065 4.03202 63.7529C4.03188 63.7975 4.02091 63.8641 4.00599 63.8999C3.99106 63.9357 3.98009 64.0023 3.97995 64.0469C3.982 64.0933 3.96905 64.1445 3.95216 64.1649C3.93695 64.1833 3.92956 64.2322 3.93619 64.2687C3.94331 64.309 3.93691 64.3656 3.92149 64.3976C3.89235 64.4594 3.85902 64.793 3.85674 65.0492C3.85598 65.1345 3.84945 65.2358 3.84108 65.277C3.82672 65.3477 3.82659 65.3923 3.84275 65.5639C3.84867 65.6101 3.85292 65.765 3.85788 65.9101C3.87149 66.4271 4.05858 67.4902 4.22536 67.9689C4.23805 68.0069 4.25954 68.0832 4.27201 68.1348C4.2828 68.1884 4.3052 68.2414 4.31612 68.2504C4.32922 68.2613 4.34775 68.3144 4.36072 68.3699C4.38546 68.4867 4.58816 69.002 4.66918 69.1619C4.68743 69.1977 4.71568 69.2658 4.72984 69.3154C4.74619 69.3668 4.77028 69.4177 4.78338 69.4285C4.79867 69.4412 4.86264 69.5595 4.92808 69.6894C4.99184 69.8213 5.06821 69.9602 5.09688 70.0011C5.12724 70.04 5.20163 70.1635 5.25904 70.2764L5.36704 70.4794L9.84322 74.1855C14.1971 77.7904 14.3233 77.8914 14.4607 77.9433C14.5404 77.9715 14.663 78.0145 14.7367 78.0411C14.8104 78.0677 14.8916 78.1074 14.92 78.1309C14.9483 78.1544 15.039 78.1916 15.1216 78.2119C15.2047 78.2359 15.2927 78.2675 15.3167 78.2874C15.3407 78.3073 15.394 78.3273 15.4316 78.3309C15.4713 78.3363 15.5576 78.3699 15.6267 78.4064C15.6957 78.443 15.7755 78.4712 15.807 78.4731C15.8379 78.4713 15.9034 78.4945 15.9516 78.5207C15.9999 78.5469 16.0653 78.5701 16.0985 78.57C16.1294 78.5682 16.2097 78.6002 16.2749 78.637C16.3401 78.6738 16.422 78.7038 16.4591 78.7035C16.4961 78.7032 16.5429 78.7178 16.5669 78.7377C16.5887 78.7558 16.6728 78.7876 16.7532 78.806C16.8337 78.8244 16.9178 78.8562 16.9396 78.8743C16.9636 78.8942 17.0225 78.912 17.0717 78.9148C17.1208 78.9177 17.1957 78.9384 17.2379 78.963C17.2817 78.9856 17.3384 79.0016 17.3634 78.9981C17.39 78.9926 17.4242 79.0003 17.4373 79.0111C17.4525 79.0238 17.518 79.047 17.5824 79.0625C17.649 79.0798 17.7513 79.1163 17.8095 79.1439C17.8655 79.1696 17.9508 79.1955 17.9977 79.1965C18.0452 79.2014 18.0975 79.2138 18.1128 79.2265C18.1281 79.2391 18.2056 79.2655 18.2861 79.2839C18.3665 79.3023 18.444 79.3287 18.4571 79.3395C18.4724 79.3522 18.5066 79.3598 18.5332 79.3544C18.562 79.3507 18.6182 79.3628 18.6582 79.3856C18.696 79.4066 18.7622 79.4201 18.8026 79.4157C18.8391 79.4116 18.8871 79.4203 18.9068 79.4366C18.9242 79.4511 18.9913 79.4722 19.0548 79.4801C19.2561 79.5125 19.298 79.5197 19.3927 79.5431C19.4433 79.5575 19.5492 79.5764 19.6308 79.5889C19.7141 79.5994 19.8244 79.6218 19.8772 79.6381C19.9317 79.6522 20.0596 79.6756 20.1666 79.6885C20.2715 79.6997 20.3696 79.719 20.3827 79.7298C20.3958 79.7407 20.4394 79.7458 20.4798 79.7414C20.5203 79.7371 20.5638 79.7422 20.5769 79.753C20.59 79.7639 20.6782 79.7818 20.7693 79.7919C20.8642 79.8017 21.1163 79.835 21.3348 79.8645C21.5533 79.894 21.7812 79.921 21.8398 79.9214C21.9923 79.9238 22.0083 79.9268 22.1517 79.9492C22.2912 79.9718 23.1288 80.0048 23.7351 80.0148C24.169 80.0198 25.9921 79.9159 26.3019 79.8662C26.4166 79.8477 26.5856 79.8259 26.6759 79.8146C26.9124 79.7868 27.1246 79.7527 27.3719 79.7029C27.4939 79.6801 27.6602 79.6526 27.7427 79.6418C27.8252 79.631 27.9295 79.6073 27.9801 79.5907C28.064 79.5604 28.1995 79.5212 28.5059 79.4446C28.8422 79.3584 29.2755 79.2218 29.4424 79.1536C29.483 79.1357 29.537 79.115 29.5636 79.1095C29.588 79.1022 29.6476 79.0792 29.6937 79.059C29.7378 79.0369 29.8004 79.0235 29.8297 79.0236C29.8612 79.0256 29.9164 78.999 29.9572 78.9675C29.9958 78.9341 30.0416 78.9101 30.0575 78.913C30.0895 78.9188 30.4784 78.7558 30.5021 78.7272C30.5122 78.715 30.5422 78.7054 30.5698 78.7076C30.5991 78.7078 30.6548 78.685 30.6922 78.6576C30.7275 78.6283 30.7977 78.5969 30.841 78.5846C30.8865 78.5741 30.9561 78.5389 30.9964 78.5035C31.0407 78.4679 31.0958 78.4413 31.1251 78.4415C31.1544 78.4417 31.2095 78.4151 31.2538 78.3794C31.2941 78.344 31.3577 78.3073 31.3954 78.2972C31.431 78.2854 31.5074 78.242 31.5661 78.1977C31.6232 78.1555 31.6984 78.118 31.7311 78.1141C31.7599 78.1105 31.8324 78.0673 31.8846 78.0176C31.9389 77.9697 32.0122 77.9169 32.0511 77.9009C32.09 77.885 32.1783 77.8274 32.2493 77.7727C32.3204 77.718 32.4103 77.6582 32.4531 77.6421C32.4921 77.6262 32.6006 77.544 32.6892 77.4592C32.7762 77.3764 32.8803 77.2906 32.9149 77.2711C32.9517 77.2533 33.0744 77.1451 33.1889 77.0335C33.3034 76.9219 33.4496 76.7987 33.5143 76.756C33.6193 76.6915 35.2623 74.7115 48.063 59.2513C60.5155 44.2114 62.5055 41.8169 62.5604 41.8039C62.6231 41.7904 62.9026 42.0219 89.5915 64.1195C115.451 85.5302 116.558 86.4506 116.567 86.5161C116.575 86.5815 116.063 87.2038 104.379 101.325L92.1827 116.064L92.1117 116.043C92.0507 116.024 92.0334 115.995 91.9844 115.841C91.9538 115.74 91.9136 115.624 91.8944 115.581C91.8634 115.507 91.784 115.283 91.711 115.065C91.6481 114.878 91.5943 114.748 91.505 114.553C91.4558 114.444 91.4044 114.333 91.3954 114.308C91.3294 114.143 91.0747 113.664 91.0398 113.635C91.0179 113.617 90.9873 113.561 90.9753 113.513C90.9633 113.465 90.9371 113.412 90.913 113.392C90.8912 113.374 90.8443 113.298 90.8068 113.219C90.7698 113.143 90.7202 113.061 90.6962 113.041C90.6722 113.021 90.6394 112.963 90.6208 112.91C90.6045 112.858 90.5651 112.795 90.5345 112.769C90.504 112.744 90.4585 112.679 90.4356 112.622C90.411 112.567 90.3467 112.476 90.294 112.416C90.2418 112.359 90.1801 112.273 90.1608 112.23C90.1394 112.184 90.0733 112.095 90.0141 112.029C89.9549 111.963 89.8883 111.87 89.8669 111.825C89.8433 111.777 89.7559 111.674 89.6731 111.592C89.5903 111.51 89.4993 111.393 89.4659 111.331C89.4299 111.263 89.3583 111.176 89.2775 111.109C89.2055 111.05 89.0967 110.932 89.0367 110.845C88.975 110.759 88.814 110.585 88.675 110.459C88.5376 110.332 88.2872 110.083 88.1201 109.907C87.6898 109.458 86.7247 108.659 86.1615 108.285C85.9421 108.141 85.6243 107.916 85.456 107.791C85.2767 107.656 85.0677 107.517 84.9492 107.46C84.8384 107.403 84.6834 107.306 84.6048 107.241C84.5262 107.176 84.4139 107.107 84.3568 107.087C84.2979 107.069 84.1483 106.983 84.0246 106.901C83.8987 106.818 83.7535 106.735 83.7007 106.719C83.6479 106.703 83.5371 106.646 83.4544 106.594C83.3717 106.543 83.257 106.486 83.202 106.468C83.147 106.45 83.0319 106.389 82.9465 106.332C82.8611 106.275 82.7404 106.216 82.6798 106.201C82.6154 106.185 82.5386 106.149 82.5058 106.122C82.473 106.095 82.3831 106.048 82.3034 106.02C82.2275 105.991 82.1134 105.938 82.052 105.901C81.9907 105.864 81.8918 105.823 81.8334 105.809C81.7733 105.798 81.703 105.767 81.6746 105.743C81.6484 105.722 81.5721 105.689 81.5055 105.672C81.4389 105.655 81.3647 105.624 81.3407 105.604C81.3145 105.583 81.2338 105.547 81.1601 105.52C81.0847 105.496 80.9698 105.452 80.9017 105.423C80.6831 105.332 80.5869 105.297 80.4653 105.262C80.3987 105.244 80.2964 105.208 80.2348 105.184C80.1733 105.161 80.0805 105.122 80.0271 105.102C79.9738 105.082 79.882 105.05 79.8236 105.036C79.7669 105.02 79.685 104.99 79.6411 104.968C79.5698 104.929 79.4274 104.884 79.1911 104.822C79.1328 104.808 79.0487 104.777 79.0043 104.75C78.9604 104.728 78.8999 104.712 78.871 104.716C78.8444 104.721 78.8103 104.713 78.795 104.701C78.7819 104.69 78.7065 104.665 78.63 104.647C78.5534 104.628 78.4555 104.595 78.4133 104.571C78.3694 104.548 78.3128 104.532 78.2861 104.537C78.2595 104.543 78.2028 104.527 78.1628 104.504C78.1211 104.483 78.0744 104.469 78.0577 104.476C78.0427 104.48 77.9727 104.467 77.9038 104.448C77.8372 104.431 77.7023 104.398 77.6097 104.376C77.5155 104.357 77.4004 104.327 77.3532 104.308C77.3081 104.292 77.1996 104.267 77.1162 104.257C77.0312 104.248 76.9331 104.229 76.8958 104.212C76.8607 104.197 76.7984 104.183 76.7575 104.183C76.6834 104.184 76.5831 104.163 76.4009 104.112C76.3481 104.096 76.2185 104.074 76.1115 104.061C76.0066 104.05 75.9085 104.031 75.8954 104.02C75.8823 104.009 75.8443 104.002 75.8138 104.007C75.7833 104.013 75.7319 104.009 75.6973 103.997C75.6323 103.978 75.4492 103.95 75.2075 103.922C75.1225 103.913 75.0426 103.899 75.0338 103.891C75.0251 103.884 74.9733 103.876 74.9207 103.877C74.8699 103.876 74.759 103.863 74.6713 103.849C74.5197 103.824 74.0813 103.784 73.7692 103.77C73.6808 103.765 73.5428 103.754 73.4611 103.742C73.3795 103.729 73.2773 103.724 73.2347 103.726C73.1009 103.732 72.657 103.726 72.5836 103.717C72.3359 103.687 70.5236 103.769 70.0925 103.832C70.0005 103.845 69.7379 103.882 69.5058 103.914C69.0399 103.979 68.5232 104.074 68.2057 104.155C68.0903 104.183 67.9083 104.225 67.798 104.247C67.6898 104.271 67.5611 104.302 67.5127 104.321C67.466 104.337 67.4033 104.351 67.3745 104.354C67.3452 104.354 67.3102 104.37 67.2983 104.384C67.2848 104.4 67.2415 104.413 67.2028 104.415C67.164 104.417 67.0063 104.466 66.8539 104.525C66.7015 104.585 66.537 104.641 66.4893 104.65C66.4417 104.659 66.3882 104.683 66.373 104.702C66.3561 104.722 66.321 104.738 66.2956 104.737C66.268 104.735 66.163 104.769 66.0612 104.812C65.9598 104.858 65.8558 104.9 65.8314 104.907C65.807 104.914 65.7441 104.941 65.6923 104.964C65.6406 104.986 65.5503 105.028 65.4875 105.055C65.4284 105.082 65.3699 105.113 65.3615 105.123C65.3513 105.135 65.2466 105.186 65.1259 105.234C65.0057 105.286 64.872 105.354 64.8312 105.386C64.7903 105.417 64.7088 105.467 64.6498 105.494C64.4566 105.585 64.2692 105.691 64.1846 105.762C64.1387 105.8 64.0573 105.849 64.0033 105.87C63.9472 105.889 63.879 105.936 63.8486 105.972C63.8182 106.009 63.7293 106.077 63.655 106.122C63.5769 106.167 63.4467 106.262 63.3643 106.335C63.2836 106.406 63.193 106.475 63.1613 106.487C63.1313 106.497 63.0209 106.594 62.9153 106.7C62.8098 106.805 62.5863 107.026 62.418 107.189C62.1037 107.493 61.8259 107.838 61.62 108.18C61.5688 108.268 61.4545 108.442 61.3708 108.565C61.2871 108.688 61.2114 108.829 61.2035 108.874C61.1918 108.919 61.1477 109.017 61.1007 109.091C61.0536 109.166 60.997 109.288 60.9749 109.359C60.955 109.432 60.9184 109.512 60.8981 109.536C60.8778 109.56 60.8514 109.628 60.8433 109.687C60.833 109.744 60.8001 109.837 60.7678 109.889C60.7393 109.941 60.7155 110.014 60.7122 110.049C60.7128 110.084 60.7027 110.128 60.6875 110.146C60.6723 110.164 60.649 110.241 60.6356 110.32C60.6223 110.398 60.6024 110.471 60.5922 110.483C60.5719 110.508 60.5004 110.848 60.4694 111.063C60.4577 111.139 60.4459 111.229 60.4404 111.262C60.4235 111.389 60.3713 111.941 60.3699 112.036C60.3575 112.731 60.5429 114.086 60.7376 114.691C60.8874 115.159 61.0049 115.497 61.0275 115.536C61.0448 115.564 61.0645 115.611 61.0702 115.64C61.0805 115.69 61.1199 115.785 61.2558 116.083C61.2803 116.138 61.348 116.269 61.4005 116.375C61.457 116.48 61.5122 116.591 61.5239 116.621C61.5373 116.65 61.5852 116.734 61.6294 116.805C61.6736 116.876 61.7697 117.031 61.8436 117.151L61.9768 117.368L66.3656 121.002C70.6999 124.59 70.7566 124.637 70.9149 124.7C71.0012 124.733 71.0884 124.774 71.1103 124.792C71.1338 124.809 71.2041 124.839 71.2707 124.857C71.3373 124.874 71.4142 124.91 71.4464 124.933C71.477 124.959 71.5577 124.994 71.6222 125.01C71.6905 125.025 71.7867 125.06 71.8366 125.084C71.976 125.151 72.3151 125.284 72.3812 125.298C72.4153 125.305 72.4946 125.33 72.5605 125.357C72.8232 125.457 72.9216 125.494 73.0389 125.526C73.1038 125.545 73.1736 125.572 73.1932 125.588C73.2129 125.605 73.2492 125.614 73.2759 125.609C73.3047 125.605 73.3652 125.621 73.4091 125.643C73.4535 125.67 73.5393 125.699 73.5976 125.713C73.7728 125.755 74.0374 125.84 74.0636 125.862C74.0789 125.874 74.129 125.885 74.1782 125.888C74.2273 125.891 74.2862 125.908 74.3102 125.928C74.3474 125.959 74.4898 126.005 74.7718 126.073C74.8302 126.087 74.916 126.117 74.9604 126.143C75.0043 126.166 75.0631 126.184 75.0898 126.178C75.1164 126.173 75.1709 126.187 75.2109 126.21C75.2487 126.231 75.3148 126.244 75.3553 126.24C75.3918 126.236 75.4398 126.244 75.4594 126.261C75.4791 126.277 75.5777 126.3 75.6825 126.311C75.7857 126.324 75.8998 126.347 75.935 126.362C75.9701 126.377 76.0367 126.395 76.0842 126.399C76.13 126.406 76.2254 126.42 76.2971 126.431C76.3671 126.444 76.5287 126.472 76.6539 126.489C76.9705 126.538 76.9986 126.544 77.1022 126.561C77.1502 126.57 77.3052 126.592 77.4404 126.611C77.5794 126.629 77.7349 126.655 77.7872 126.667C77.8373 126.678 77.8947 126.684 77.9097 126.679C77.9231 126.677 78.0136 126.683 78.103 126.695C78.1962 126.707 78.342 126.717 78.4287 126.724C78.5171 126.728 78.6534 126.741 78.7351 126.754C78.8167 126.766 78.9647 126.779 79.0608 126.783C79.1608 126.786 79.332 126.797 79.4446 126.808C79.5572 126.819 79.8098 126.825 80.0027 126.823C80.1957 126.821 80.5042 126.822 80.6838 126.823C81.0746 126.826 82.4511 126.755 82.4731 126.729C82.4816 126.718 82.6483 126.695 82.8444 126.671C83.0388 126.65 83.3323 126.611 83.4926 126.582C83.6528 126.553 83.8534 126.52 83.9398 126.509C84.0224 126.498 84.1245 126.472 84.1656 126.458C84.2045 126.442 84.3488 126.41 84.4824 126.387C84.6176 126.361 84.7713 126.327 84.8274 126.308C84.8819 126.291 84.9496 126.271 84.9757 126.262C85.0024 126.256 85.0662 126.237 85.1151 126.223C85.1678 126.208 85.3017 126.171 85.4149 126.14C85.5259 126.109 85.6271 126.075 85.6372 126.063C85.6457 126.053 85.6873 126.043 85.7243 126.042C85.7652 126.042 85.8214 126.023 85.8499 126.002C85.8823 125.981 85.9735 125.946 86.0567 125.925C86.1399 125.905 86.3562 125.826 86.5376 125.749C86.719 125.672 86.8876 125.602 86.912 125.595C86.9365 125.587 86.9865 125.567 87.0233 125.549C87.0579 125.53 87.1375 125.496 87.2003 125.469C87.2594 125.442 87.3212 125.407 87.3365 125.389C87.35 125.372 87.3979 125.35 87.4438 125.344C87.4876 125.335 87.5539 125.304 87.5931 125.274C87.6305 125.247 87.7091 125.205 87.7686 125.182C87.8259 125.158 87.8912 125.119 87.9098 125.096C87.9284 125.074 87.9758 125.048 88.0135 125.038C88.0513 125.028 88.1388 124.98 88.212 124.927C88.3283 124.844 88.4115 124.793 88.6564 124.648C88.7473 124.596 89.0752 124.338 89.3156 124.127C89.4176 124.04 89.6569 123.791 89.8515 123.574C90.0461 123.356 90.271 123.116 90.3534 123.043C90.5198 122.895 136.105 67.8927 136.275 67.6381C136.34 67.5372 136.366 67.4697 136.361 67.4002L136.357 67.3035L107.047 43.0326C89.2255 28.2767 77.7112 18.7535 77.6748 18.744ZM127.809 72.3422C127.981 72.4986 128.039 72.5669 128.054 72.6242L128.069 72.6989L125.445 75.8859C124 77.6407 122.787 79.1138 122.75 79.1587C122.709 79.2136 122.647 79.2522 122.598 79.2629C122.526 79.2789 122.493 79.2653 122.353 79.1632C122.266 79.0986 110.129 69.0563 95.388 56.8475C69.6855 35.5632 68.5823 34.6463 68.574 34.5809C68.5656 34.5155 68.6986 34.3504 71.2589 31.2447C73.0192 29.1142 73.9784 27.9647 74.0224 27.9426C74.0587 27.9211 74.1184 27.9155 74.1531 27.927C74.2224 27.95 127.376 71.9494 127.809 72.3422Z" fill="black"/>
</svg>
