<svg width="105" height="118" viewBox="0 0 105 118" fill="none" xmlns="http://www.w3.org/2000/svg">
<path d="M28.269 16.4287C27.8146 16.7236 27.7797 16.7666 27.6857 17.1246L27.6395 17.3087L27.8222 17.574C27.9233 17.7159 28.5743 18.802 29.2728 19.9831C29.9697 21.1615 31.3946 23.5708 32.4351 25.3376C33.4788 27.1024 35.0722 29.804 35.9786 31.3439C37.9516 34.6948 37.9434 34.6809 39.1718 36.7361C39.705 37.6304 45.8804 48.0653 52.8919 59.9212C64.3481 79.3001 65.6471 81.5039 65.7235 81.735C65.7684 81.8765 65.802 82.0134 65.7959 82.0395C65.7898 82.0729 65.6925 82.1267 65.4511 82.2284C65.1874 82.3433 65.077 82.375 64.9341 82.3736C64.8345 82.3728 64.6019 82.3946 64.4208 82.4233C64.1322 82.467 64.0535 82.465 63.865 82.401C63.5023 82.2757 63.435 82.2857 62.8999 82.5461C62.2308 82.8784 61.9556 82.9665 61.6824 82.9488C61.2936 82.9249 61.1222 82.9627 60.6973 83.1692C59.6432 83.6806 56.3356 85.6031 54.7683 86.6158C53.5932 87.3743 53.5789 87.3865 53.1068 88.1174C52.9679 88.334 52.4873 88.7302 52.0629 88.9812C51.7693 89.1548 51.7375 89.1811 51.6079 89.3697C51.5336 89.4772 51.4567 89.6384 51.44 89.7267C51.3971 89.9163 51.3052 90.0304 50.9156 90.3691C50.5656 90.6731 50.3533 90.9331 50.2437 91.1921C50.1419 91.4277 50.0502 91.5567 49.766 91.848C49.5072 92.1167 49.3966 92.2792 49.2649 92.5737C49.2164 92.6882 49.1106 92.8516 49.0329 92.9386C48.9551 93.0257 48.8394 93.1576 48.7775 93.2278C48.7077 93.3064 48.626 93.4668 48.5637 93.6455C48.4719 93.9126 48.4498 93.948 48.2147 94.1841C47.8557 94.5383 47.8084 94.6186 47.757 94.9103C47.7239 95.1091 47.6769 95.2191 47.5505 95.4058C47.4368 95.5776 47.3756 95.7146 47.3452 95.867C47.3147 96.0194 47.2536 96.1564 47.162 96.2927C46.9644 96.5776 46.8463 96.793 46.7465 97.0612C46.6997 97.1859 46.5768 97.4005 46.4771 97.5378C46.3584 97.6939 46.2797 97.8375 46.2614 97.9305C46.1992 98.2622 46.154 98.3823 46.0512 98.529C45.9437 98.6821 45.9064 98.7938 45.8477 99.1534C45.8311 99.2565 45.7688 99.4278 45.7073 99.535C45.6443 99.647 45.5852 99.8238 45.5705 99.9445C45.5573 100.061 45.5077 100.224 45.4621 100.307C45.2951 100.608 45.247 100.759 45.2544 100.99C45.2593 101.152 45.232 101.295 45.1616 101.467C45.0756 101.678 45.0669 101.758 45.0883 102.108C45.1098 102.457 45.1011 102.537 45.0119 102.75C44.9446 102.913 44.9126 103.07 44.9113 103.243C44.9103 103.445 44.8857 103.549 44.7852 103.751C44.6171 104.093 44.6119 104.208 44.7587 104.565C44.8908 104.898 44.8932 104.967 44.7579 105.227C44.6133 105.506 44.6184 105.682 44.788 106.064C44.9428 106.42 44.9571 106.554 44.8724 106.884C44.8432 107.002 44.8206 107.146 44.8293 107.204C44.8461 107.415 45.003 107.818 45.2423 108.267C45.3735 108.518 45.5624 108.903 45.6547 109.124C45.9216 109.743 46.1267 110.141 46.2634 110.306C46.457 110.539 47.3686 111.826 47.506 112.058C47.6123 112.238 47.6546 112.28 47.8047 112.352C47.8999 112.396 48.0673 112.439 48.1782 112.445C48.4288 112.453 48.5274 112.511 48.7519 112.781C48.9666 113.035 49.0491 113.087 49.2917 113.104C49.6935 113.135 49.7691 113.147 49.8595 113.198C50.0712 113.315 50.2435 113.366 50.417 113.368C50.5197 113.367 50.7064 113.406 50.8338 113.454C50.9611 113.502 51.1639 113.539 51.2939 113.54C51.4224 113.539 51.6443 113.572 51.786 113.608C51.9293 113.646 52.1447 113.668 52.2666 113.656C52.387 113.648 52.5525 113.658 52.6331 113.685C52.712 113.71 52.8795 113.753 53.0018 113.777C53.1933 113.817 53.251 113.813 53.4333 113.742C53.8843 113.573 54.0766 113.541 54.3052 113.6C54.616 113.681 54.8612 113.637 55.2619 113.426C55.6451 113.23 55.7958 113.2 56.1849 113.254C56.4165 113.289 56.4775 113.282 56.7302 113.193C56.9045 113.131 57.2559 112.96 57.6646 112.741C58.0221 112.544 58.6687 112.203 59.0965 111.98C59.5244 111.757 59.8995 111.554 59.9282 111.529C60.0045 111.462 61.6373 110.421 62.7219 109.75C63.8335 109.059 63.9162 108.988 64.1982 108.496C64.4614 108.038 64.5329 107.97 65.1357 107.591C65.4275 107.407 65.7193 107.216 65.7878 107.164C65.9439 107.049 66.0714 106.821 66.1107 106.596C66.1485 106.383 66.2356 106.268 66.5333 106.036C66.8327 105.807 67.1856 105.479 67.282 105.343C67.3215 105.286 67.3891 105.153 67.4345 105.048C67.5439 104.774 67.6311 104.666 67.9983 104.326C68.3162 104.033 68.3178 104.029 68.4348 103.717C68.5315 103.458 68.593 103.358 68.7786 103.148C68.9118 102.994 69.0382 102.808 69.0962 102.68C69.2655 102.303 69.3129 102.231 69.5272 102.003C69.7462 101.769 69.8216 101.612 69.8898 101.247C69.9018 101.166 69.9583 101.043 70.0105 100.978C70.0612 100.911 70.1482 100.796 70.2021 100.727C70.2575 100.653 70.3566 100.463 70.4191 100.307C70.4816 100.151 70.5902 99.9482 70.6582 99.8594C70.9512 99.4808 70.9827 99.4249 71.0251 99.1907C71.0569 99.0188 71.1148 98.8763 71.2269 98.7017C71.3563 98.4982 71.3875 98.4126 71.4077 98.2065C71.4233 98.0143 71.4606 97.9027 71.5631 97.7338C71.6624 97.5667 71.7029 97.4458 71.7218 97.2666C71.7363 97.1236 71.7811 96.9664 71.8379 96.873C71.9451 96.6902 72.0087 96.4846 72.0257 96.2803C72.0296 96.1922 72.0936 96.0311 72.1866 95.8678C72.3189 95.6328 72.3376 95.5769 72.3303 95.3535C72.3269 95.1875 72.3586 95.0007 72.4239 94.8127C72.5127 94.5549 72.5183 94.4844 72.4812 94.174C72.4407 93.8507 72.4466 93.8024 72.5541 93.4962C72.6537 93.2132 72.6673 93.1268 72.6392 92.9119C72.6147 92.7248 72.6276 92.5865 72.6817 92.394C72.7731 92.0898 72.7706 92.0054 72.655 91.5623C72.5475 91.133 72.5378 90.9782 72.6097 90.6556C72.6816 90.3256 72.6533 90.0884 72.5037 89.7699C72.2655 89.2724 72.1713 88.8801 72.2113 88.5764C72.2247 88.4826 72.2295 88.3304 72.2236 88.2331C72.19 87.8049 72.8315 88.9041 60.7471 68.4703L49.5199 49.486L49.5915 49.2794C49.649 49.0998 49.6759 49.0652 49.7575 49.0357C49.9494 48.967 50.2926 48.9283 50.5433 48.9443C50.6814 48.9522 50.9478 48.9366 51.1289 48.9079C51.4319 48.8594 51.4865 48.8644 51.6929 48.9439C51.9783 49.0552 52.1085 49.0641 52.3565 48.9883C52.4622 48.9557 52.6414 48.902 52.7551 48.8684C52.9151 48.8186 53.0242 48.8138 53.2381 48.8478C53.399 48.8721 53.6446 48.8725 53.8419 48.8492C54.1033 48.8178 54.2189 48.8241 54.3898 48.8799C54.6862 48.9733 54.7552 48.9662 55.1854 48.8125L55.5628 48.6715L55.9105 48.7496C56.2903 48.8311 56.3289 48.8308 56.665 48.7365C56.9083 48.6673 57.1041 48.656 57.485 48.6884C57.612 48.6992 57.8109 48.6861 57.9295 48.6608C58.1986 48.5987 58.3239 48.6067 58.5593 48.699C58.8367 48.8112 59.0035 48.7947 59.3822 48.6193C59.5595 48.5406 59.7338 48.4711 59.7739 48.4661C59.8124 48.4657 59.9556 48.4893 60.0924 48.5241C60.3839 48.6019 60.5654 48.6028 60.839 48.5194C60.9495 48.4877 61.121 48.4647 61.219 48.4702C61.5854 48.4925 61.9031 48.4763 62.1113 48.4278C62.4125 48.3618 62.4832 48.3648 62.7363 48.4652C63.0201 48.5736 63.155 48.5686 63.5724 48.4225C63.8988 48.3116 63.9228 48.3086 64.23 48.3547C64.423 48.3824 64.6543 48.3875 64.813 48.3646C65.007 48.3358 65.1178 48.3412 65.2259 48.3855C65.6532 48.5547 65.7174 48.5541 66.25 48.3549C66.5458 48.2434 66.5538 48.2424 66.866 48.3042C67.0527 48.3431 67.2889 48.3565 67.4348 48.3412C67.6289 48.3197 67.735 48.3317 67.8865 48.3914C68.1462 48.4954 68.3005 48.5087 68.5824 48.4465C68.7297 48.4117 68.9159 48.4061 69.0832 48.4267C69.3195 48.4549 69.5906 48.4327 70.0376 48.3439C70.1306 48.3262 70.2608 48.3425 70.3978 48.3922C70.6283 48.4687 70.736 48.4834 71.0795 48.4744C71.2032 48.4722 71.3785 48.5067 71.5172 48.5591C71.6801 48.6233 71.8136 48.6451 71.9933 48.6359C72.1682 48.6258 72.3194 48.6484 72.4903 48.7116C72.6612 48.7749 72.8124 48.7975 72.9873 48.7874C73.143 48.7812 73.3215 48.8063 73.4697 48.853C73.5986 48.8963 73.8062 48.9341 73.9331 48.9374C74.0921 48.9442 74.2241 48.9781 74.363 49.0528C74.5698 49.162 74.7001 49.1857 74.9921 49.1698C75.0836 49.1643 75.2187 49.1889 75.2962 49.2252C75.5109 49.326 75.7233 49.3721 75.8613 49.3578C76.0408 49.3337 76.2822 49.3777 76.4308 49.4615C76.5019 49.5016 76.7032 49.558 76.8802 49.5878C77.1938 49.6375 77.2132 49.6485 77.5096 49.8802C77.8043 50.1091 77.8285 50.1209 78.0777 50.149C78.3397 50.177 78.4672 50.2323 78.8521 50.4826C78.9443 50.5438 79.1152 50.6144 79.2247 50.6393C79.442 50.6863 79.6844 50.8341 79.9019 51.049C80.0789 51.2244 80.3084 51.3649 80.492 51.4132C80.9155 51.5249 81.1098 51.6713 81.4035 52.1025C81.6581 52.4746 81.7489 52.5553 82.2514 52.8443C82.5568 53.0184 82.6879 53.1164 82.8439 53.2855C83.0698 53.5364 83.669 54.4403 84.2447 55.4066C84.7012 56.1784 84.8625 56.3929 85.4345 57.0178C86.312 57.9774 86.4887 58.2761 86.6482 59.0629L86.7536 59.598L87.3991 60.7769C87.7744 61.4697 88.0599 62.0252 88.0883 62.1242C88.1418 62.324 88.1592 62.7393 88.12 62.9716C88.0761 63.2178 88.1477 63.4481 88.4002 63.926C88.81 64.6991 88.8436 64.8287 88.7742 65.3886C88.7256 65.787 88.7816 66.0638 88.9861 66.4096C89.2217 66.8079 89.2818 67.1718 89.1737 67.5643C89.098 67.8368 89.1395 68.1035 89.3054 68.4497C89.4614 68.7644 89.4709 68.897 89.3728 69.1753C89.2606 69.4955 89.2598 69.5669 89.3891 69.9385C89.4586 70.1288 89.5271 70.3684 89.5474 70.4683C89.5798 70.6396 89.5743 70.725 89.499 71.1802C89.484 71.2787 89.4915 71.517 89.5177 71.7143C89.556 71.9829 89.5527 72.123 89.5047 72.2895L89.4429 72.5127L89.5876 72.6699C89.6672 72.7535 89.7579 72.8342 89.7917 72.8403C89.8304 72.8548 89.9504 72.81 90.1564 72.7068L90.4597 72.5498L90.5471 72.3189C90.5939 72.1942 90.6433 72.0082 90.6566 71.907C90.6668 71.8076 90.7147 71.6337 90.7584 71.5256C90.8491 71.3003 90.8579 71.0748 90.789 70.7982C90.7253 70.5521 90.7271 70.271 90.7875 70.0747C90.8464 69.8756 90.8476 69.6883 90.7798 69.3699C90.7137 69.0468 90.7149 68.8669 90.7814 68.6297C90.8556 68.3693 90.8402 68.132 90.7102 67.6936L90.605 67.3265L90.6953 67.0714C90.8184 66.7261 90.8034 66.5259 90.6243 66.1576C90.4551 65.8059 90.4242 65.6226 90.4789 65.1907C90.5229 64.8063 90.4826 64.4978 90.3566 64.2848C90.211 64.0386 90.0657 63.6691 90.0213 63.4265C89.989 63.2627 89.9958 63.1504 90.0439 62.9987C90.1681 62.6116 90.1462 62.5163 89.7775 61.8346C89.3808 61.0909 89.2845 60.8044 89.2673 60.2582C89.2601 60.0422 89.2166 59.7282 89.1729 59.5524C89.0991 59.2675 89.058 59.1761 88.7701 58.6892C88.5934 58.3905 88.21 57.6913 87.9165 57.1368C87.3099 55.9871 86.3412 54.3273 85.8745 53.6401C85.6983 53.3858 85.303 52.7683 84.9973 52.2733C84.27 51.1092 84.1287 50.9575 83.5415 50.7074C83.3043 50.605 83.1176 50.413 82.6987 49.843C82.2439 49.2197 82.0801 49.0738 81.7049 48.9709C81.4327 48.8967 81.2968 48.7979 81.0704 48.5098C80.7464 48.0929 80.4922 47.9034 80.1654 47.8242C79.94 47.7708 79.7864 47.6786 79.5173 47.442C79.2903 47.2402 78.9958 47.0261 78.6594 46.8069L78.4815 46.6955L78.5404 46.4965C78.6503 46.1216 78.6281 46.004 78.3364 45.4597C78.079 44.9735 77.921 44.6263 77.8001 44.2834C77.7471 44.1355 77.746 44.0391 77.7884 43.8049C77.8203 43.6404 77.8458 43.4723 77.8453 43.4278C77.8434 43.2497 77.582 42.6986 77.0352 41.7302C76.4211 40.6409 76.4605 40.7147 75.8458 39.4205C75.2377 38.1373 74.6439 37.1332 74.0332 36.3556C73.5154 35.6911 73.0177 34.9661 72.6202 34.2939C72.2701 33.702 72.1988 33.6396 71.7883 33.5426C71.3939 33.451 71.3208 33.3785 70.5547 32.3307C70.2711 31.9458 70.1595 31.8662 69.8782 31.8421C69.5826 31.8228 69.4904 31.7616 69.2153 31.4202C68.9157 31.0448 68.6891 30.8727 68.3345 30.7538C67.9864 30.6386 67.8034 30.4967 67.5896 30.1788C67.3921 29.8812 67.2966 29.8144 67.0235 29.7968C66.5977 29.7686 66.538 29.7478 66.4191 29.5904C66.3588 29.5103 66.2562 29.3806 66.1992 29.306C66.0656 29.1311 65.9221 29.0704 65.5895 29.0543C65.4513 29.0464 65.2969 29.0182 65.2516 28.9927C65.2016 28.9663 65.0653 28.8378 64.9482 28.7055C64.7127 28.4527 64.6465 28.4209 64.2609 28.4025C64.1485 28.4018 64.0195 28.3512 63.853 28.2517C63.6736 28.145 63.5318 28.0945 63.313 28.0596C63.0171 28.0106 63.0171 28.0106 62.7801 27.7774C62.4912 27.4927 62.3701 27.4337 62.0892 27.4393C61.8179 27.4466 61.702 27.4181 61.4968 27.3042C61.4063 27.2532 61.2082 27.1949 61.0554 27.1695C60.8093 27.1321 60.7335 27.0985 60.4682 26.9194C60.1996 26.7347 60.127 26.7067 59.8552 26.6621C59.6445 26.6262 59.4833 26.5721 59.3411 26.4845C59.1891 26.3952 59.0876 26.3618 58.964 26.364C58.6718 26.3651 58.4305 26.3285 58.3077 26.2593C58.1979 26.1973 58.0113 26.1658 57.6819 26.1478C57.6064 26.1439 57.4373 26.0983 57.3083 26.0476C57.1777 25.9942 56.9684 25.9462 56.8431 25.9382C56.7129 25.9293 56.5165 25.8812 56.3971 25.8249C56.2793 25.7713 56.0571 25.716 55.9043 25.6981C55.7516 25.6801 55.5295 25.6323 55.4118 25.5861C55.2941 25.54 55.1314 25.4906 55.0477 25.4803C54.9625 25.4673 54.6373 25.3908 54.3233 25.3114C54.0077 25.2292 53.6938 25.1572 53.6231 25.1468C53.5523 25.1364 53.3526 25.0827 53.1754 25.0233C53.0029 24.9647 52.7792 24.9141 52.6796 24.9132C52.5816 24.9077 52.4079 24.8835 52.2936 24.8577C52.1809 24.8273 51.9734 24.7895 51.8318 24.7687C51.6919 24.7506 51.4506 24.7066 51.2945 24.6757C50.8504 24.5874 50.8407 24.5857 49.8788 24.4228C49.3817 24.3396 48.8172 24.259 48.6308 24.2423C48.446 24.2284 48.1115 24.1872 47.888 24.1515C47.6644 24.1157 47.3734 24.0824 47.2369 24.0773C47.102 24.0749 46.88 24.0419 46.7432 24.0071C46.6095 23.9704 46.41 23.939 46.3041 23.9419C46.1933 23.944 45.9312 23.9086 45.7188 23.8699C45.5048 23.8284 45.2508 23.7994 45.1529 23.8013C45.0518 23.8051 44.8812 23.7716 44.7684 23.7338C44.6427 23.6887 44.4593 23.6627 44.286 23.6681C44.1078 23.6727 43.9116 23.6468 43.7666 23.5982C43.6328 23.5541 43.4157 23.5219 43.2824 23.5223C43.1235 23.523 42.9658 23.4967 42.84 23.4442C42.6513 23.3654 42.389 23.3152 42.3316 23.3491C42.2742 23.3831 41.9636 23.3241 41.7765 23.248C41.6426 23.1891 41.5107 23.17 41.3262 23.1783C41.1304 23.1896 41.0178 23.1666 40.8403 23.0923C40.6661 23.0161 40.5454 22.9941 40.3432 23.0017C40.1378 23.0112 40.0299 22.9891 39.8605 22.9138C39.6911 22.8385 39.5849 22.8192 39.3907 22.8258C39.1949 22.837 39.0823 22.814 38.8887 22.7343C38.7387 22.67 38.5793 22.6335 38.4799 22.6401C38.2375 22.6527 38.0718 22.6201 37.9054 22.5281C37.8214 22.4807 37.6105 22.4299 37.4095 22.4032L37.0654 22.3602L36.7994 22.1143L36.5334 21.8684L36.2116 21.8123C35.8481 21.751 35.7771 21.7183 35.5032 21.4882C35.2584 21.2783 35.1631 21.2264 34.912 21.1658C34.59 21.0874 34.4394 20.9711 34.1963 20.6183C33.9516 20.2628 33.861 20.2043 33.4461 20.1435C33.192 20.1071 33.1887 20.1016 32.9937 19.8884C32.8848 19.7698 32.7024 19.5342 32.5898 19.3656C32.1197 18.6654 31.8778 18.4238 31.5005 18.2811C31.1651 18.1509 30.8365 17.7553 30.0801 16.571C29.7387 16.0374 29.6462 15.9465 29.3627 15.8677C29.2049 15.8267 29.224 15.8153 28.269 16.4287ZM39.2361 30.8661C39.5063 30.9079 39.5929 30.9015 39.8299 30.8361C40.3181 30.7004 40.4207 30.6845 40.6892 30.7161C40.8371 30.7332 41.0987 30.7241 41.2735 30.6992C41.6005 30.6477 41.7708 30.6589 41.9757 30.7506C42.1532 30.8323 42.3312 30.8055 42.7341 30.6493L43.0986 30.5084L43.4206 30.5794C43.707 30.6414 44.0137 30.643 44.1127 30.5845C44.1988 30.5335 44.5822 30.5047 44.8298 30.53C44.9937 30.5451 45.2232 30.5326 45.3947 30.5021C45.7103 30.4386 45.8806 30.4499 46.0936 30.5405C46.2839 30.6221 46.5039 30.6227 46.7471 30.5461C47.0319 30.4523 47.2405 30.4335 47.5042 30.4717C47.6281 30.4918 47.8608 30.4848 48.0179 30.4591C48.2984 30.4164 48.3676 30.4241 48.8073 30.556C48.9104 30.5847 49.0677 30.5813 49.2777 30.5504C49.4669 30.5207 49.7173 30.5145 49.8845 30.5351C50.0501 30.5529 50.2797 30.5478 50.4351 30.5193C50.5793 30.4938 50.7588 30.4623 50.8325 30.4486C50.9079 30.4376 51.0639 30.4611 51.1847 30.4979C51.3298 30.5466 51.5002 30.5653 51.6831 30.5542C51.9109 30.5389 52.0155 30.5555 52.2155 30.6388C52.4252 30.7239 52.5136 30.7351 52.7687 30.7149C52.982 30.697 53.1331 30.7122 53.2878 30.7625C53.4683 30.8201 53.5743 30.8246 53.8517 30.7912C54.0634 30.7631 54.3187 30.7652 54.5342 30.7946C54.7239 30.8168 55.0356 30.8341 55.2314 30.8303C55.4225 30.8256 55.5863 30.8332 55.5945 30.847C55.6223 30.8941 56.0793 30.9823 56.2896 30.9811C56.41 30.9808 56.5902 31.0087 56.6982 31.0456C56.8045 31.0798 56.9783 31.1115 57.0875 31.1141C57.4778 31.1259 57.5341 31.1337 57.7228 31.2125C57.9002 31.2868 58.325 31.3642 58.3824 31.3302C58.3952 31.3227 58.5289 31.3668 58.6757 31.4256C58.8241 31.4872 59.0899 31.5652 59.2636 31.5969C59.4454 31.6275 59.7322 31.7192 59.9323 31.81C60.1259 31.8971 60.3564 31.9736 60.4464 31.9801C60.5444 31.9856 60.7217 32.0525 60.9074 32.148C61.1594 32.2828 61.2448 32.3107 61.4278 32.307C61.7007 32.3024 61.8118 32.3301 62.0379 32.4502C62.151 32.5103 62.2975 32.5469 62.4389 32.5529C62.7296 32.5639 62.7941 32.5855 62.9898 32.7125C63.1741 32.8349 63.4339 32.9464 63.7286 33.0297C63.8382 33.062 64.0222 33.1548 64.1387 33.2352C64.3491 33.3871 64.4168 33.4068 64.907 33.4566C65.0581 33.4718 65.1501 33.5108 65.2521 33.5886C65.4238 33.726 65.7353 33.8741 65.9203 33.9028C66.0586 33.9255 66.2621 34.0367 66.5439 34.2509C66.6442 34.3259 66.77 34.371 67.008 34.4095C67.3539 34.47 67.3927 34.4919 67.6772 34.8127C67.882 35.0426 68.0322 35.1218 68.3667 35.1703L68.6449 35.2112L68.9747 35.5575C69.4197 36.0187 69.5767 36.1386 69.8327 36.2001C70.1643 36.2802 70.3181 36.3946 70.5692 36.739C70.6882 36.9038 70.8402 37.1462 70.909 37.2773C71.0173 37.4895 71.0531 37.5281 71.2083 37.623C71.3134 37.6915 71.4745 37.7456 71.6193 37.7645C71.8347 37.7939 71.8735 37.8158 72.0196 37.9609C72.1073 38.0509 72.3109 38.315 72.4676 38.5509C72.9443 39.2696 75.956 44.3621 76.1059 44.7103C76.236 45.003 76.2379 45.0281 76.1898 45.1871C76.1354 45.35 76.1306 45.3565 76.0327 45.3584C75.9733 45.36 75.83 45.3215 75.7123 45.2754C75.551 45.2139 75.4385 45.1984 75.2605 45.2178C74.9669 45.2458 74.8591 45.2237 74.6231 45.0795C74.5164 45.0156 74.3166 44.9471 74.1701 44.918C73.8789 44.8625 73.7884 44.8114 73.5531 44.581C73.3453 44.3753 73.1824 44.3111 72.8904 44.327C72.7155 44.3371 72.598 44.3132 72.4319 44.2434C72.3092 44.189 72.145 44.1443 72.0695 44.1404C71.7128 44.1199 71.5953 44.096 71.4258 44.0133C71.3273 43.9633 71.1196 43.9106 70.9669 43.8927C70.8109 43.8766 70.5758 43.814 70.4403 43.7597C70.3081 43.7036 70.1116 43.648 70.0087 43.6416C69.9043 43.6325 69.6433 43.5553 69.424 43.4685C69.2047 43.3816 68.8776 43.2801 68.6974 43.2448C68.5155 43.2067 68.2964 43.1421 68.2061 43.0985C68.1173 43.0577 67.9096 43.005 67.7424 42.9844C67.572 42.9657 67.3578 42.9095 67.2545 42.8586C67.1512 42.8076 66.9997 42.7628 66.9114 42.759C66.5692 42.7411 66.3921 42.7039 66.2339 42.6258C66.1096 42.5611 65.9938 42.54 65.7834 42.5412C65.5796 42.5461 65.4412 42.5233 65.3057 42.4616C65.0959 42.3691 65.0718 42.3647 64.7475 42.3698C64.5902 42.3732 64.4662 42.3457 64.3306 42.2766C64.1982 42.213 64.0775 42.1836 63.9555 42.1885C63.856 42.1951 63.7004 42.2013 63.6121 42.2049C63.5206 42.2105 63.3598 42.1861 63.2518 42.1492C63.1277 42.1068 62.967 42.0899 62.8194 42.1025C62.691 42.1112 62.4548 42.0978 62.2939 42.066C62.133 42.0342 61.8373 42.0075 61.6333 42.0049C61.431 42.0051 61.0951 41.976 60.886 41.9428C60.6769 41.9097 60.4229 41.8807 60.3233 41.8798C60.2189 41.8781 60.0291 41.8485 59.9004 41.8201C59.77 41.7889 59.5321 41.7653 59.3764 41.7715C59.1982 41.7761 59.0117 41.752 58.8891 41.705C58.7651 41.6626 58.5737 41.6376 58.3859 41.6405C58.1723 41.6435 58.0212 41.6209 57.8711 41.5566C57.7196 41.4969 57.586 41.475 57.4095 41.4824C57.2314 41.4943 57.0882 41.4707 56.9205 41.4056C56.7561 41.3461 56.5936 41.3189 56.4058 41.3217C56.21 41.3256 56.0652 41.2992 55.8942 41.2285C55.7313 41.1643 55.5832 41.1324 55.4452 41.1394C55.243 41.1469 55.1513 41.1302 54.8449 41.0127C54.7562 40.9793 54.5826 40.9551 54.459 40.9572C54.2005 40.9645 54.1361 40.9503 53.9053 40.8366C53.7955 40.7821 53.6604 40.7575 53.5191 40.7589C53.2574 40.768 53.0981 40.7316 52.877 40.6271C52.7898 40.5816 52.6175 40.5379 52.4937 40.5252C52.3249 40.5093 52.1798 40.4532 51.8811 40.2976C51.6372 40.1693 51.4098 40.076 51.2714 40.0533C51.1524 40.0341 50.9799 39.9681 50.8877 39.9069C50.5627 39.6996 50.574 39.7041 50.0517 39.6657C49.9344 39.6567 49.8248 39.617 49.7358 39.5539C49.5901 39.4459 49.3416 39.3389 49.021 39.241C48.905 39.2051 48.7403 39.1158 48.6269 39.0261C48.3613 38.8173 48.2097 38.7576 47.927 38.7456C47.7953 38.7413 47.6489 38.7196 47.6038 38.7015C47.5538 38.6825 47.4449 38.564 47.3422 38.4194C47.1203 38.1025 46.9766 38.027 46.6234 38.0268C46.4853 38.0263 46.3374 38.0093 46.2874 37.9903C46.2406 37.9694 46.1123 37.8399 46 37.701C45.764 37.4112 45.6735 37.3601 45.344 37.3273C45.2202 37.3146 45.0722 37.2827 45.0205 37.2535C44.9688 37.2244 44.8355 37.0791 44.7263 36.9309C44.6155 36.7799 44.4935 36.6392 44.4499 36.6165C44.4095 36.5918 44.2147 36.5465 44.0217 36.5187L43.6711 36.4647L43.2642 35.9587C43.0395 35.6808 42.8346 35.4361 42.8103 35.4169C42.786 35.3977 42.612 35.3438 42.422 35.2993C42.1934 35.2478 42.0531 35.1926 42.006 35.1421C41.78 34.8837 41.5974 34.6332 41.442 34.3705C41.2637 34.0689 41.1144 33.9183 40.9062 33.8212C40.8545 33.7994 40.7351 33.7431 40.6415 33.7014C40.2139 33.51 39.9864 33.2562 39.3672 32.2895C39.0127 31.7337 38.9816 31.6737 38.9063 31.3935C38.8528 31.2011 38.8335 31.0519 38.8566 30.9673C38.8735 30.8939 38.8937 30.8334 38.9033 30.8277C38.9129 30.822 39.064 30.8372 39.2361 30.8661Z" fill="black"/>
</svg>
