<svg width="135" height="145" viewBox="0 0 135 145" fill="none" xmlns="http://www.w3.org/2000/svg">
<path d="M38.4697 3.36422C38.3668 3.50067 38.3582 3.56705 38.3929 3.8204C38.4149 3.97041 38.4698 4.10657 38.5677 4.27042C38.6701 4.43961 48.5672 16.2525 72.6452 44.9622C91.3081 67.2093 106.622 85.4875 106.681 85.575C106.828 85.8028 106.806 85.9302 106.594 86.1077C106.449 86.2294 106.411 86.243 106.206 86.2513C105.821 86.2641 105.388 86.3182 105.176 86.3725C105.066 86.4007 104.9 86.4314 104.803 86.4346C104.707 86.4429 104.557 86.4821 104.468 86.5242C104.38 86.5663 104.213 86.6021 104.101 86.6046C103.969 86.6061 103.812 86.6424 103.68 86.7029C103.564 86.7592 103.375 86.8171 103.259 86.8322C103.144 86.8473 102.971 86.9009 102.874 86.9503C102.772 87.0045 102.617 87.0435 102.489 87.0503C102.312 87.0574 102.228 87.0869 101.988 87.2246C101.792 87.3387 101.637 87.4007 101.494 87.4248C101.33 87.4531 101.198 87.5086 100.91 87.6825C100.652 87.8348 100.487 87.9093 100.382 87.9249C100.155 87.9553 100.064 87.9999 99.6722 88.2512C99.3958 88.4283 99.2471 88.4984 99.0161 88.5646C98.7449 88.6417 98.6888 88.6751 98.3316 88.9383C98.0171 89.1701 97.8606 89.2604 97.5339 89.4068C97.0897 89.6017 96.8352 89.7696 95.8719 90.5001C95.5626 90.7322 95.0871 91.09 94.8119 91.298C94.5345 91.5033 93.9771 91.9343 93.5679 92.2593C92.9425 92.7565 92.7816 92.9005 92.5317 93.1739C92.245 93.4918 91.7853 93.9274 90.6468 94.9733C90.1188 95.4571 90.0682 95.5087 89.9315 95.7463C89.757 96.0566 89.7173 96.1035 89.0819 96.7184C88.6115 97.1767 88.5719 97.2236 88.4751 97.4323C88.4084 97.5884 88.3135 97.7226 88.1733 97.8676C88.0627 97.9831 87.8805 98.1724 87.7692 98.293C87.6203 98.4453 87.5499 98.5498 87.5119 98.6636C87.4474 98.8635 87.3444 99 86.9814 99.3682C86.7196 99.6333 86.6815 99.6881 86.6182 99.8777C86.5479 100.082 86.4371 100.239 86.1379 100.554C86.0476 100.652 85.9846 100.76 85.9489 100.876C85.9148 101.001 85.813 101.168 85.6316 101.411C85.4877 101.605 85.3298 101.846 85.2806 101.947C85.2366 102.048 85.1378 102.212 85.0622 102.317C84.9919 102.421 84.902 102.597 84.8663 102.713C84.8241 102.84 84.7427 102.99 84.6568 103.094C84.5804 103.185 84.4859 103.297 84.4462 103.344C84.4094 103.388 84.3628 103.509 84.3393 103.611C84.3097 103.74 84.2505 103.858 84.1395 103.997C84.0372 104.128 83.9658 104.261 83.9382 104.375C83.9121 104.497 83.8284 104.645 83.6744 104.856C83.524 105.06 83.4361 105.22 83.412 105.327C83.3899 105.418 83.3087 105.587 83.2319 105.701C83.1573 105.818 83.0761 105.987 83.054 106.078C83.0318 106.169 82.9493 106.348 82.8712 106.473C82.7923 106.603 82.7212 106.753 82.711 106.812C82.7009 106.871 82.6442 107.009 82.5857 107.122C82.5279 107.23 82.4557 107.409 82.4242 107.513C82.392 107.621 82.3283 107.775 82.2862 107.861C82.2419 107.943 82.1882 108.079 82.1674 108.161C82.1443 108.239 82.0727 108.413 82.0042 108.543C81.9357 108.674 81.877 108.828 81.8743 108.889C81.8693 108.948 81.8213 109.079 81.7693 109.182C81.715 109.282 81.6492 109.451 81.6177 109.555C81.5856 109.664 81.5247 109.815 81.4798 109.903C81.4355 109.986 81.4034 110.095 81.41 110.144C81.4166 110.193 81.3753 110.332 81.3184 110.453C81.2615 110.574 81.1931 110.763 81.1632 110.875C81.1333 110.986 81.0909 111.095 81.0677 111.114C81.0444 111.134 81.0101 111.24 80.9875 111.355C80.9679 111.467 80.9179 111.654 80.8748 111.768C80.8339 111.884 80.795 112.026 80.7906 112.08C80.7885 112.136 80.756 112.268 80.7216 112.375C80.6872 112.481 80.6631 112.588 80.6643 112.619C80.6684 112.647 80.6307 112.779 80.5805 112.907C80.5326 113.039 80.4978 113.168 80.507 113.197C80.514 113.223 80.4835 113.34 80.4346 113.458C80.3864 113.571 80.3177 113.843 80.2821 114.06C80.2435 114.279 80.1855 114.528 80.1538 114.613C80.1191 114.702 80.0768 114.869 80.0624 114.982C80.0472 115.099 80.01 115.308 79.9864 115.451C79.9577 115.593 79.9149 115.825 79.8891 115.965C79.8604 116.107 79.82 116.401 79.7969 116.621C79.7686 116.84 79.739 117.07 79.7282 117.134C79.7151 117.195 79.6722 117.468 79.6322 117.738C79.5951 118.006 79.5408 118.348 79.5136 118.498C79.4872 118.643 79.4689 118.845 79.4776 118.938C79.4835 119.033 79.4765 119.208 79.4643 119.323C79.4492 119.44 79.4318 119.655 79.4179 119.804C79.4091 119.952 79.3898 120.182 79.3778 120.315C79.3659 120.448 79.3519 120.697 79.3479 120.869C79.3439 121.041 79.3348 121.271 79.3284 121.382C79.3197 121.489 79.3263 121.679 79.3368 121.798C79.3526 121.917 79.3513 122.027 79.3397 122.037C79.3252 122.049 79.323 122.147 79.3378 122.253C79.3687 122.455 79.3686 122.696 79.3399 123.08C79.3321 123.2 79.3498 123.404 79.3803 123.529C79.4137 123.651 79.4309 123.819 79.4226 123.903C79.4121 123.985 79.4374 124.151 79.4743 124.265C79.5135 124.383 79.5362 124.528 79.5248 124.596C79.5019 124.734 79.5534 125.137 79.6597 125.617C79.7022 125.809 79.7271 125.998 79.7167 126.039C79.7092 126.077 79.7294 126.201 79.7634 126.318C79.7981 126.43 79.8198 126.604 79.8102 126.698C79.7977 126.795 79.8245 126.968 79.8644 127.081C79.9065 127.196 79.9494 127.365 79.961 127.455C79.9749 127.548 80.0284 127.736 80.0833 127.872C80.1359 128.005 80.1871 128.19 80.1936 128.28C80.2036 128.504 80.2466 128.632 80.3742 128.867C80.4413 128.988 80.4968 129.16 80.5128 129.297C80.5354 129.483 80.5804 129.596 80.7688 129.921C80.9143 130.176 81.0191 130.407 81.0626 130.571C81.1157 130.782 81.1761 130.895 81.4344 131.28C81.6454 131.59 81.757 131.788 81.7837 131.902C81.8422 132.131 81.9656 132.337 82.3848 132.919C82.7799 133.467 83.8019 134.65 84.1546 134.965C84.2707 135.068 84.5292 135.27 84.7303 135.416C84.9315 135.561 85.2339 135.804 85.4029 135.959C85.644 136.175 85.7582 136.253 85.9303 136.322C86.0633 136.375 86.2529 136.489 86.3889 136.598C86.557 136.74 86.7043 136.821 86.9442 136.907C87.1221 136.972 87.2788 137.041 87.2945 137.059C87.3101 137.078 87.4386 137.125 87.5831 137.168C87.7277 137.211 87.8975 137.278 87.9569 137.319C88.0191 137.358 88.1624 137.411 88.2764 137.429C88.3876 137.45 88.561 137.509 88.6551 137.563C88.752 137.613 88.8914 137.656 88.9612 137.657C89.0309 137.657 89.1842 137.693 89.2949 137.736C89.4057 137.78 89.6033 137.833 89.7305 137.849C89.8578 137.866 89.9705 137.894 89.9818 137.907C89.993 137.921 90.1041 137.941 90.232 137.953C90.6019 137.993 90.9014 138.038 91.0261 138.075C91.3999 138.185 92.6741 138.255 93.3898 138.201C93.6612 138.183 93.9502 138.168 94.0348 138.175C94.1199 138.176 94.2592 138.16 94.3506 138.133C94.439 138.109 94.5497 138.094 94.5902 138.101C94.6336 138.105 94.7773 138.094 94.9098 138.069C95.0417 138.05 95.2256 138.028 95.3159 138.029C95.4069 138.026 95.5629 138 95.6521 137.971C95.7463 137.942 95.892 137.915 95.9779 137.911C96.066 137.91 96.211 137.889 96.3075 137.863C96.4041 137.836 96.5732 137.808 96.6854 137.801C96.7954 137.791 96.9666 137.747 97.0622 137.708C97.1578 137.669 97.3209 137.628 97.4206 137.617C97.5196 137.611 97.7081 137.553 97.8401 137.493C97.9692 137.435 98.1548 137.379 98.2487 137.373C98.3426 137.368 98.5305 137.315 98.6618 137.259C98.7961 137.201 98.9888 137.131 99.0934 137.102C99.2002 137.076 99.422 136.982 99.5881 136.897C99.7571 136.81 99.9651 136.722 100.053 136.703C100.141 136.684 100.272 136.652 100.341 136.634C100.416 136.617 100.509 136.575 100.553 136.539C100.727 136.393 101.136 136.186 101.302 136.161C101.437 136.139 101.536 136.092 101.767 135.931C102.474 135.442 102.549 135.402 103.109 135.187C103.204 135.153 103.494 134.969 103.788 134.759C104.537 134.227 104.837 134.03 105.161 133.858C105.636 133.605 106.075 133.274 107.261 132.279C108.494 131.245 109.408 130.415 109.61 130.15C109.679 130.055 109.801 129.894 109.879 129.792C109.954 129.688 110.231 129.406 110.487 129.163C111.144 128.544 111.349 128.323 111.562 127.989C111.686 127.789 111.861 127.579 112.114 127.321C112.538 126.884 112.622 126.772 112.775 126.471C112.856 126.303 112.955 126.174 113.163 125.963C113.39 125.732 113.459 125.637 113.527 125.471C113.589 125.333 113.688 125.181 113.849 125.001C114.303 124.488 114.381 124.386 114.46 124.215C114.504 124.114 114.661 123.896 114.823 123.706C115.023 123.474 115.15 123.295 115.236 123.109C115.306 122.963 115.451 122.741 115.558 122.615C115.671 122.479 115.785 122.297 115.838 122.171C115.886 122.058 116.021 121.83 116.145 121.672C116.267 121.511 116.398 121.296 116.44 121.192C116.482 121.089 116.574 120.916 116.65 120.807C116.724 120.695 116.797 120.546 116.809 120.478C116.821 120.404 116.911 120.228 117.019 120.069C117.124 119.917 117.236 119.709 117.271 119.603C117.302 119.499 117.396 119.316 117.478 119.197C117.561 119.077 117.65 118.889 117.674 118.782C117.706 118.655 117.771 118.532 117.86 118.426C118.044 118.203 118.101 118.101 118.113 117.963C118.12 117.894 118.185 117.748 118.262 117.633C118.336 117.516 118.416 117.34 118.439 117.243C118.459 117.144 118.533 116.978 118.6 116.876C118.668 116.769 118.738 116.605 118.761 116.508C118.779 116.412 118.832 116.257 118.876 116.162C118.921 116.069 118.98 115.915 119.01 115.821C119.038 115.725 119.099 115.592 119.144 115.522C119.19 115.447 119.241 115.313 119.261 115.219C119.284 115.123 119.339 114.958 119.388 114.853C119.438 114.747 119.491 114.598 119.508 114.524C119.526 114.451 119.571 114.322 119.607 114.236C119.647 114.153 119.685 114.04 119.687 113.983C119.692 113.924 119.74 113.77 119.796 113.636C119.855 113.5 119.919 113.301 119.944 113.194C119.968 113.087 119.999 112.988 120.013 112.976C120.03 112.962 120.058 112.847 120.08 112.72C120.101 112.592 120.138 112.448 120.163 112.395C120.188 112.342 120.225 112.216 120.251 112.117C120.274 112.015 120.327 111.861 120.367 111.773C120.41 111.682 120.458 111.528 120.471 111.426C120.538 111.028 120.622 110.662 120.678 110.506C120.763 110.284 120.891 109.776 120.89 109.681C120.888 109.637 120.915 109.546 120.945 109.48C120.977 109.413 121.014 109.263 121.029 109.145C121.046 109.031 121.084 108.822 121.109 108.687C121.21 108.183 121.266 107.831 121.379 106.953C121.44 106.46 121.493 106.028 121.494 106C121.496 105.967 121.522 105.762 121.551 105.538C121.582 105.316 121.616 105.009 121.625 104.861C121.637 104.71 121.651 104.497 121.663 104.382C121.673 104.269 121.673 104.105 121.666 104.02C121.657 103.932 121.662 103.85 121.677 103.838C121.694 103.824 121.697 103.698 121.692 103.556C121.685 103.412 121.692 103.274 121.706 103.249C121.725 103.224 121.72 103.141 121.701 103.066C121.687 102.991 121.685 102.87 121.702 102.796C121.717 102.725 121.718 102.556 121.707 102.419C121.693 102.285 121.697 102.113 121.714 102.039C121.729 101.963 121.73 101.835 121.712 101.754C121.697 101.671 121.7 101.569 121.718 101.526C121.737 101.483 121.739 101.362 121.725 101.256C121.71 101.15 121.698 100.983 121.701 100.88C121.701 100.78 121.693 100.641 121.678 100.576C121.664 100.506 121.664 100.36 121.677 100.245C121.691 100.132 121.675 99.9954 121.651 99.9429C121.624 99.8877 121.601 99.7479 121.6 99.6348C121.6 99.5166 121.58 99.3462 121.556 99.2526C121.53 99.1563 121.514 99.0143 121.517 98.9297C121.523 98.8478 121.489 98.6715 121.438 98.5407C121.393 98.4101 121.356 98.2312 121.362 98.1492C121.365 98.0646 121.328 97.8908 121.28 97.7627C121.226 97.6343 121.19 97.4554 121.191 97.3681C121.192 97.2757 121.141 97.0729 121.079 96.9107C121.014 96.751 120.957 96.5531 120.949 96.4731C120.933 96.254 120.896 96.1393 120.79 95.9647C120.693 95.8087 120.617 95.5585 120.648 95.4778C120.668 95.4247 120.501 95.0085 120.423 94.9149C120.387 94.8722 120.336 94.7234 120.313 94.5836C120.258 94.2882 120.25 94.2724 120.009 93.8681C119.909 93.7016 119.791 93.4545 119.749 93.3216C119.647 93.006 119.537 92.8159 119.146 92.2735C118.966 92.0236 118.739 91.6816 118.639 91.5151C118.419 91.1529 117.753 90.2585 117.197 89.5903C116.882 89.2082 116.765 89.0871 116.67 89.0441C116.565 88.9955 116.257 88.6394 114.339 86.3532C113.124 84.904 111.652 83.1781 111.064 82.5186C110.293 81.6528 109.13 80.2779 106.887 77.5731C105.175 75.5149 90.9133 58.4858 75.1911 39.739C59.4665 20.9896 45.8391 4.71713 44.9095 3.57925C43.4946 1.85093 43.1493 1.43914 42.8095 1.10468C42.4511 0.753928 42.376 0.693897 42.2129 0.634869C42.052 0.578508 41.9948 0.58096 41.813 0.646916C41.6063 0.724546 41.5693 0.751059 40.074 1.99599C39.2313 2.69361 38.5101 3.31219 38.4697 3.36422Z" fill="black"/>
</svg>
