<svg width="118" height="127" viewBox="0 0 118 127" fill="none" xmlns="http://www.w3.org/2000/svg">
<path d="M91.6092 21.1369C91.5557 21.1473 89.5518 23.7586 81.3002 34.5962C75.6648 41.991 64.6503 56.4395 56.8225 66.7044C48.9947 76.9693 42.3955 85.6378 42.1584 85.9661C41.7357 86.5553 41.728 86.5652 41.6133 86.5842C41.5368 86.6008 41.4708 86.5859 41.419 86.5463C41.3384 86.4848 41.1232 86.2058 41.0587 86.0815C41.0124 85.987 40.7277 85.5365 40.546 85.2674C40.4652 85.1465 40.3921 85.0274 40.3825 85.0043C40.369 84.9623 40.1988 84.7139 40.0047 84.455C39.948 84.3801 39.8749 84.273 39.8412 84.2157C39.8075 84.1584 39.7211 84.0449 39.6462 83.964C39.5713 83.8831 39.4915 83.7787 39.4646 83.7305C39.4376 83.6823 39.3656 83.5917 39.3012 83.5268C39.2369 83.4619 39.1457 83.3487 39.0985 83.2732C39.0485 83.1955 38.9563 83.0777 38.8872 83.013C38.8171 82.9437 38.7 82.8108 38.6241 82.7133C38.5481 82.6158 38.4281 82.4807 38.3552 82.4092C38.2851 82.3399 38.1507 82.1937 38.0575 82.0831C37.8951 81.884 37.6994 81.6989 37.0181 81.0877C36.6285 80.7387 34.3794 79.0483 33.8627 78.7167C33.1868 78.2833 32.6988 77.9856 32.4631 77.8647C32.3299 77.7946 32.1132 77.6725 31.9858 77.5949C31.657 77.399 31.2286 77.1784 31.0188 77.101C30.924 77.0641 30.6845 76.9601 30.489 76.87C30.2936 76.78 30.0646 76.6801 29.9774 76.6451C29.8883 76.6126 29.7283 76.5417 29.6162 76.4916C29.506 76.439 29.393 76.3961 29.3681 76.3929C29.3413 76.3921 29.2225 76.3448 29.1018 76.2881C28.983 76.229 28.8355 76.1715 28.7742 76.1563C28.7129 76.1411 28.642 76.1146 28.619 76.097C28.596 76.0794 28.4916 76.0431 28.3844 76.0165C28.2819 75.9895 28.1699 75.9513 28.1411 75.9293C28.0922 75.892 27.8978 75.8303 27.4745 75.7163C27.3721 75.6894 27.1787 75.6324 27.0484 75.5882C26.6337 75.457 24.894 75.0086 24.3847 74.8998C23.9951 74.8194 23.4637 74.7097 23.2876 74.6778C23.1842 74.658 23.0301 74.6272 22.9458 74.6062C22.8616 74.5853 22.7084 74.5591 22.606 74.5441C22.5036 74.529 22.3782 74.5082 22.3246 74.4949C22.271 74.4816 22.1705 74.4641 22.1006 74.4541C22.0307 74.4442 21.846 74.4176 21.6929 74.3914C21.2756 74.3293 20.9511 74.2828 20.6286 74.2457C20.4678 74.2295 20.2936 74.207 20.2333 74.1965C19.994 74.1519 19.8677 74.1383 19.6161 74.1277C19.4745 74.1222 19.1664 74.108 18.9386 74.0959C18.709 74.0863 18.489 74.0762 18.4507 74.0785C18.4143 74.0784 18.2498 74.0791 18.0872 74.0772C17.406 74.0742 16.2687 74.1017 15.9349 74.127C15.8584 74.1318 15.5418 74.1585 15.2319 74.1823C14.6792 74.226 14.5185 74.2454 13.964 74.3391C13.812 74.3651 13.5691 74.3967 13.4199 74.4131C13.2755 74.4291 13.0929 74.4594 13.0174 74.4807C12.939 74.4998 12.8052 74.5318 12.7172 74.5515C12.4926 74.6011 12.029 74.7128 11.9583 74.7338C11.922 74.7456 11.7748 74.7951 11.6248 74.8424C11.4747 74.8896 11.3209 74.9419 11.2798 74.9539C11.2387 74.966 11.0047 75.0636 10.7572 75.1668C9.56221 75.6754 9.1763 75.8465 9.07417 75.9146C9.01213 75.9541 8.92523 76.0022 8.87842 76.0218C8.82874 76.0391 8.73516 76.09 8.66452 76.1348C8.59388 76.1795 8.49937 76.2376 8.44972 76.2668C7.90361 76.588 7.20909 77.1512 6.61608 77.7486C6.31196 78.0572 5.34074 79.4002 5.26495 79.6187C5.23083 79.7111 5.14535 79.8945 5.07309 80.0249C4.99986 80.1506 4.94579 80.287 4.94879 80.3248C4.95657 80.3624 4.92151 80.4619 4.87588 80.5455C4.83024 80.6291 4.77998 80.7605 4.76685 80.8374C4.75372 80.9142 4.7292 81.0179 4.70545 81.0669C4.66747 81.1524 4.60619 81.4175 4.55934 81.7055C4.5462 81.7823 4.52837 81.8832 4.51897 81.9313C4.50957 81.9794 4.50117 82.0441 4.5032 82.0772C4.50235 82.1082 4.49019 82.1897 4.47989 82.2568C4.44419 82.4467 4.39806 82.9485 4.40158 83.1407C4.40381 83.2333 4.39947 83.3642 4.39108 83.4289C4.37908 83.5579 4.37997 83.5388 4.43564 84.1579C4.4835 84.7275 4.54695 85.1037 4.72575 85.9194C4.86563 86.5475 4.91896 86.7581 5.02713 87.0579C5.05225 87.1323 5.11215 87.3044 5.15567 87.4443C5.2011 87.5817 5.25317 87.7044 5.27044 87.7176C5.2877 87.7308 5.34744 87.8554 5.4034 87.9968C5.45937 88.1383 5.5191 88.2629 5.53637 88.2761C5.55076 88.2871 5.58735 88.3585 5.61535 88.4351C5.64336 88.5118 5.68571 88.5876 5.71448 88.6096C5.74038 88.6294 5.77693 88.6889 5.79338 88.7449C5.81174 88.7984 5.85219 88.8767 5.88485 88.9174C5.91751 88.9582 5.95796 89.0364 5.9811 89.0897C6.00233 89.1454 6.0658 89.2412 6.1186 89.2974C6.17429 89.3557 6.25117 89.4579 6.28869 89.5221C6.4908 89.8778 6.55041 89.9668 6.69918 90.112C6.78749 90.1993 6.87875 90.3124 6.90189 90.3656C6.92406 90.4141 6.99709 90.5094 7.06619 90.574C7.13816 90.6409 7.21216 90.7408 7.2334 90.7965C7.25946 90.8638 7.35068 90.9651 7.51668 91.1117C7.66829 91.2472 7.77775 91.3664 7.81147 91.4356C7.85386 91.5232 7.95655 91.6214 8.31148 91.9084C8.70479 92.2286 8.76335 92.2891 8.801 92.3889C8.83962 92.4934 8.878 92.5267 9.93113 93.3312C10.9612 94.1181 11.0293 94.1662 11.1298 94.1718C11.2226 94.1756 11.3165 94.2316 11.796 94.5702C12.2266 94.8715 12.3847 94.9686 12.4623 94.9805C12.5293 94.9882 12.6721 95.0697 12.8801 95.2089C13.0777 95.344 13.2502 95.4402 13.345 95.4652C13.4273 95.4887 13.5797 95.5577 13.6861 95.6152C13.8864 95.7288 14.2285 95.8953 14.5197 96.0151C14.6155 96.0567 14.811 96.1468 14.9566 96.2186C15.362 96.4216 15.6398 96.547 15.8381 96.6156C15.9396 96.6497 16.0527 96.7045 16.0901 96.733C16.1303 96.7638 16.2491 96.8111 16.3535 96.8356C16.4588 96.8647 16.5709 96.9029 16.6025 96.9271C16.6342 96.9513 16.7472 96.9942 16.8516 97.0186C16.9569 97.0477 17.0718 97.0882 17.1092 97.1167C17.1438 97.1431 17.2415 97.1822 17.3257 97.2031C17.4071 97.2219 17.5297 97.2642 17.6025 97.3001C17.7453 97.3697 18.0604 97.4761 18.2691 97.525C18.3476 97.5415 18.4319 97.5743 18.4607 97.5963C18.4895 97.6183 18.5757 97.6486 18.6523 97.6676C18.7289 97.6867 18.8849 97.7269 18.9979 97.7579C19.312 97.8478 20.102 98.0604 20.1699 98.0728C20.2838 98.0966 20.6898 98.1975 20.8191 98.237C20.8909 98.2563 21.0919 98.3033 21.2662 98.3377C21.4404 98.3721 21.6558 98.4182 21.7458 98.4435C21.9048 98.4859 22.1555 98.5275 22.2703 98.5322C22.3019 98.5327 22.3823 98.5467 22.4494 98.5663C22.6667 98.6218 23.1683 98.7167 23.2774 98.7171C23.3137 98.7172 23.4831 98.74 23.6525 98.7628C23.82 98.7881 24.067 98.8228 24.2009 98.8382C24.333 98.8562 24.5024 98.879 24.5752 98.8911C24.6479 98.9033 24.7838 98.9163 24.8776 98.9247C24.9704 98.9285 25.1436 98.9463 25.2604 98.9605C25.3771 98.9746 25.5867 98.9926 25.7235 98.9984C26.1541 99.0193 27.0477 99.0544 27.1204 99.0546C27.1587 99.0523 27.2782 99.0568 27.3883 99.0618C27.7059 99.0755 28.8691 99.0321 29.7939 98.9726C30.7523 98.911 31.3967 98.819 32.0343 98.6584C32.1471 98.6301 32.3325 98.5901 32.4425 98.5714C32.7092 98.5264 32.8306 98.4928 33.1068 98.3997C33.2358 98.3561 33.4116 98.3048 33.4996 98.2852C33.5875 98.2655 33.7222 98.2263 33.7958 98.1956C34.0232 98.1007 34.1703 98.0513 34.2564 98.0341C34.4055 98.0059 34.6148 97.9407 34.6749 97.9037C34.7045 97.8828 34.843 97.8268 34.9777 97.7757C35.1125 97.7246 35.2529 97.666 35.2873 97.6449C35.3216 97.6238 35.3904 97.5934 35.4458 97.5805C35.5013 97.5675 35.5748 97.5368 35.613 97.5107C35.6512 97.4846 35.7276 97.4561 35.7812 97.4457C35.8376 97.4375 35.8892 97.4176 35.9006 97.4027C35.9101 97.3902 36.0238 97.3309 36.1527 97.2754C36.7297 97.0212 36.8815 96.9477 36.9846 96.8724C37.0485 96.8305 37.1163 96.7954 37.1364 96.7989C37.1566 96.8024 37.2272 96.7695 37.2883 96.7254C37.3494 96.6812 37.4573 96.6175 37.5279 96.5846C37.6005 96.5493 37.6941 96.4983 37.7361 96.4672C37.78 96.4336 37.8659 96.3927 37.9252 96.3748C37.9864 96.3544 38.0456 96.3246 38.0608 96.3046C38.076 96.2847 38.1477 96.2446 38.2202 96.2093C38.3912 96.1345 38.5993 96.0053 38.7959 95.8553C38.8846 95.7928 39.0278 95.6889 39.1223 95.6308C39.4783 95.3974 39.7721 95.144 40.2745 94.6355L40.7999 94.1088L44.4086 89.4027C46.3954 86.8138 51.2728 80.447 55.2501 75.2524C61.4313 67.1728 62.4866 65.8033 62.5497 65.7923C62.6061 65.784 62.6194 65.7666 62.6116 65.729C62.5971 65.6587 62.6656 65.5689 62.7374 65.5645C62.7804 65.5618 62.7928 65.5397 62.8021 65.4678C62.8095 65.3984 62.8276 65.3688 62.8916 65.3387C62.9537 65.3111 62.9765 65.2812 62.9868 65.2141C62.9971 65.1469 63.0228 65.1192 63.083 65.0941C63.148 65.0687 63.1632 65.0487 63.1668 64.9844C63.1685 64.9225 63.1876 64.8975 63.2583 64.8647C63.3175 64.8349 63.3413 64.8096 63.3335 64.7721C63.3199 64.7064 63.3895 64.6214 63.4612 64.6169C63.5042 64.6143 63.5185 64.5896 63.5259 64.5203C63.5352 64.4365 63.5485 64.4191 63.6393 64.3897C63.7349 64.3601 63.7463 64.3451 63.786 64.2096C63.8201 64.0935 63.8458 64.0539 63.9021 64.0337C63.9575 64.0089 63.9766 63.984 63.984 63.9146C63.9905 63.8406 64.0057 63.8206 64.0697 63.8024C64.1242 63.7848 64.1499 63.7571 64.1621 63.6874C64.1791 63.6175 64.202 63.5876 64.2851 63.5563C64.4102 63.5058 64.4331 63.4759 64.4393 63.3424C64.4476 63.2421 64.4533 63.2347 64.5422 63.2078C64.6665 63.1764 64.7693 63.0417 64.7898 62.8836C64.8076 62.7709 64.8152 62.7609 64.907 62.7362C64.9959 62.7093 65.4254 62.153 71.0885 54.7398C75.4153 49.0698 77.1897 46.7649 77.2413 46.7451C77.3244 46.7138 77.3081 46.7053 77.6392 47.0294C77.8792 47.264 77.9944 47.3876 78.5293 47.9817C78.7405 48.2182 78.9539 48.4996 79.1222 48.7624C79.1885 48.8605 79.2654 48.9626 79.2942 48.9846C79.3258 49.0088 79.3758 49.0746 79.4047 49.1322C79.4644 49.2449 79.6951 49.5871 79.8104 49.7344C79.8498 49.7842 79.9123 49.8872 79.9547 49.963C79.9942 50.0366 80.049 50.114 80.0691 50.1294C80.0921 50.147 80.1412 50.22 80.1797 50.2889C80.2952 50.5074 80.4712 50.784 80.5586 50.8784C80.6056 50.9302 80.6662 51.0238 80.6961 51.0861C80.7259 51.1484 80.7692 51.217 80.7923 51.2346C80.8153 51.2522 80.9519 51.479 81.0982 51.7408C81.2416 52.0004 81.3907 52.2525 81.4311 52.2952C81.4695 52.3403 81.5166 52.4158 81.535 52.4693C81.5533 52.5228 81.5957 52.5986 81.6302 52.6369C81.6629 52.6776 81.7034 52.7559 81.7198 52.8119C81.7363 52.8679 81.768 52.9277 81.7968 52.9497C81.8227 52.9695 81.8651 53.0453 81.8931 53.1219C81.9211 53.1986 81.9634 53.2744 81.9922 53.2964C82.0181 53.3162 82.0546 53.3757 82.0711 53.4317C82.0894 53.4852 82.1452 53.5791 82.1895 53.6406C82.2337 53.702 82.2741 53.7803 82.2761 53.8134C82.283 53.8462 82.307 53.8923 82.3329 53.912C82.3588 53.9318 82.4098 54.0142 82.4464 54.0975C82.485 54.1782 82.5312 54.2609 82.5542 54.2785C82.5743 54.2939 82.6081 54.3631 82.6303 54.4354C82.6497 54.5054 82.692 54.5812 82.7208 54.6032C82.7496 54.6252 82.7736 54.6593 82.7756 54.6806C82.7701 54.7475 82.9108 55.0524 82.9915 55.1614C83.0328 55.2207 83.0752 55.2964 83.0772 55.3296C83.0811 55.3602 83.1139 55.4247 83.1542 55.4674C83.1917 55.5078 83.2292 55.5839 83.2371 55.6333C83.2439 55.678 83.267 55.7312 83.2843 55.7444C83.3044 55.7598 83.3699 55.8888 83.4269 56.035C83.4886 56.1808 83.5638 56.3449 83.5974 56.4022C83.7091 56.602 83.8045 56.7933 83.9028 57.0224C83.9559 57.1498 84.0262 57.3142 84.059 57.3905C84.0889 57.4647 84.1303 57.5358 84.1476 57.549C84.162 57.56 84.1928 57.6389 84.217 57.7205C84.2887 57.9846 84.2993 58.0124 84.3551 58.0826C84.382 58.119 84.4186 58.1904 84.4331 58.237C84.4476 58.2836 84.4891 58.3903 84.5257 58.4736C84.6318 58.7165 84.6694 58.8045 84.7495 59.0157C84.7939 59.1246 84.8382 59.2217 84.8526 59.2327C84.8641 59.2415 84.8979 59.3225 84.9249 59.4064C84.9888 59.621 84.9888 59.621 85.094 59.883C85.1451 60.0129 85.2031 60.1875 85.2235 60.2741C85.2584 60.4193 85.3067 60.5588 85.379 60.7207C85.4195 60.8109 85.5627 61.2795 85.5735 61.3668C85.5794 61.4068 85.6471 61.6165 85.7205 61.8305C85.8567 62.2307 85.9285 62.5185 86.1036 63.3868C86.2243 63.9804 86.2878 64.3685 86.2706 64.3909C86.2554 64.4109 86.3274 65.0622 86.3792 65.3702C86.3949 65.4809 86.3991 65.6065 86.3811 65.648C86.3659 65.6917 86.3576 65.7683 86.3683 65.8199C86.4276 66.1061 86.4486 66.3709 86.424 66.4627C86.407 66.5207 86.4015 66.5757 86.4158 66.5867C86.4389 66.6043 86.4423 66.7847 86.4258 66.9853C86.4222 67.0377 86.4274 67.18 86.4355 67.3006C86.4613 67.5889 86.4508 67.8533 86.4146 67.9006C86.3993 67.9206 86.3959 68.0443 86.4078 68.1719C86.4226 68.3017 86.4202 68.442 86.4022 68.4835C86.387 68.5272 86.3825 68.5987 86.3951 68.6479C86.4067 68.6923 86.4041 68.7495 86.3869 68.7719C86.3698 68.7943 86.3606 68.9137 86.3668 69.0369C86.3729 69.16 86.3677 69.31 86.3583 69.37C86.349 69.43 86.3482 69.4966 86.355 69.5175C86.3666 69.5382 86.3572 69.61 86.3374 69.6778C86.3165 69.7408 86.3044 69.8343 86.3094 69.8815C86.3172 69.9309 86.2988 70.1577 86.268 70.3829C86.2401 70.6104 86.2122 70.8378 86.2085 70.8903C86.202 70.9406 86.1805 71.0821 86.1551 71.2048C86.1296 71.3276 86.1091 71.4738 86.1083 71.5285C86.1104 71.5853 86.0964 71.6694 86.0755 71.7206C86.0536 71.767 86.0386 71.8583 86.0322 71.9204C86.0305 71.9823 86.005 72.0813 85.9803 72.1375C85.9556 72.1936 85.932 72.2901 85.9284 72.3545C85.9238 72.4142 85.9069 72.5079 85.8832 72.5568C85.8642 72.6055 85.8501 72.6777 85.855 72.713C85.8599 72.7484 85.8459 72.8443 85.8242 72.9264C85.7164 73.3179 85.6806 73.4722 85.6846 73.5147C85.6875 73.5407 85.6697 73.6415 85.6413 73.7383C85.5317 74.1442 85.5128 74.2167 85.5027 74.3432C85.4963 74.4173 85.4746 74.4994 85.4555 74.5243C85.4346 74.5518 85.412 74.6529 85.396 74.7513C85.3849 74.8494 85.3518 74.9584 85.327 74.9908C85.3022 75.0232 85.2729 75.1153 85.2579 75.1946C85.2354 75.3433 85.1872 75.5197 85.0793 75.8519C85.0452 75.9562 85.0065 76.0964 84.9933 76.1613C84.9801 76.2263 84.9365 76.343 84.8956 76.4144C84.8576 76.4881 84.814 76.6167 84.799 76.696C84.7868 76.7775 84.7518 76.8771 84.7194 76.9195C84.6918 76.9616 84.651 77.0568 84.6321 77.1292C84.6161 77.2039 84.5582 77.3571 84.5022 77.4722C84.4509 77.5871 84.3997 77.7257 84.3923 77.7831C84.3867 77.8381 84.326 77.9773 84.2565 78.0861C84.1852 78.2093 84.1406 78.3214 84.1474 78.3661C84.1553 78.4155 84.1031 78.5375 84.0099 78.6953C83.9271 78.8335 83.8597 78.9873 83.8608 79.0395C83.8591 79.0895 83.8021 79.2237 83.7317 79.3397C83.6661 79.4554 83.6073 79.5921 83.6065 79.6468C83.6077 79.7109 83.5402 79.841 83.3984 80.0564C83.2452 80.2869 83.1881 80.3973 83.1913 80.4708C83.1915 80.542 83.1393 80.6522 82.9936 80.8726C82.8661 81.0634 82.7939 81.2057 82.795 81.2579C82.7934 81.3435 82.664 81.5606 82.3241 82.0472C82.2099 82.2087 82.1767 82.2821 82.1884 82.3502C82.203 82.4325 82.1478 82.5167 81.5831 83.2857C81.0146 84.0597 80.9661 84.1411 80.9779 84.2211C80.9906 84.3059 80.9583 84.3602 80.5258 84.9024C80.1314 85.4067 80.0485 85.4974 79.9797 85.504C79.9089 85.5131 79.8184 85.6137 79.3402 86.2159C78.8286 86.8557 78.7714 86.9186 78.6463 86.9691C78.5412 87.0112 78.4563 87.0925 78.2515 87.3309C78.0314 87.5892 77.9741 87.6402 77.8833 87.6577C77.7925 87.6752 77.7477 87.716 77.601 87.908C77.4562 88.0975 77.4076 88.1433 77.3206 88.1558C77.2441 88.1724 77.1687 88.2293 77.022 88.3976C76.8838 88.5486 76.7932 88.6255 76.7262 88.6415C76.666 88.6547 76.5611 88.7325 76.4638 88.8359C76.3552 88.9543 76.275 89.0115 76.2109 89.0179C76.1469 89.0242 76.0753 89.0761 75.9695 89.1967C75.857 89.3201 75.7893 89.367 75.7051 89.3817C75.6191 89.3989 75.5647 89.4403 75.4771 89.555C75.3971 89.6597 75.3284 89.7139 75.2443 89.7404C75.1784 89.7611 75.0753 89.8245 75.0152 89.8853C74.9551 89.946 74.8606 90.0041 74.8081 90.0192C74.7526 90.0322 74.6477 90.1099 74.5619 90.1984C74.4627 90.3043 74.3797 90.3593 74.3051 90.3734C74.2468 90.3841 74.1714 90.4292 74.139 90.4716C74.1066 90.514 74.0035 90.5774 73.9128 90.6186C73.8211 90.6552 73.7189 90.7232 73.6865 90.7656C73.6542 90.808 73.5806 90.8506 73.5252 90.8635C73.4669 90.8742 73.3657 90.9351 73.297 91.0011C73.2284 91.0671 73.1386 91.125 73.0966 91.1323C73.0564 91.1372 72.9619 91.1953 72.8913 91.2638C72.8208 91.3323 72.7263 91.3904 72.6813 91.3956C72.6383 91.3982 72.5505 91.4535 72.4827 91.5124C72.4198 91.5709 72.3157 91.6296 72.2526 91.6406C72.1781 91.6547 72.1093 91.697 72.0617 91.7593C72.016 91.8192 71.9434 91.8664 71.8832 91.8796C71.8268 91.8879 71.7313 91.9413 71.6732 91.9995C71.6121 92.0556 71.5195 92.1112 71.467 92.1263C71.4115 92.1392 71.317 92.1973 71.257 92.2581C71.194 92.3166 71.0909 92.38 71.025 92.4007C70.959 92.4214 70.8893 92.459 70.8684 92.4864C70.8474 92.5138 70.7815 92.5464 70.7251 92.5546C70.6697 92.5676 70.5761 92.6185 70.5189 92.6695C70.4616 92.7206 70.3747 92.7687 70.3279 92.7764C70.2782 92.7818 70.1875 92.8349 70.1226 92.896C70.0597 92.9545 69.9671 93.0101 69.9173 93.0156C69.8705 93.0232 69.7798 93.0763 69.7188 93.1324C69.6587 93.1931 69.5613 93.249 69.503 93.2597C69.4447 93.2705 69.3769 93.3055 69.354 93.3355C69.3312 93.3654 69.2634 93.4005 69.205 93.4112C69.1467 93.4219 69.0493 93.4778 68.9893 93.5386C68.9282 93.5946 68.8404 93.6499 68.7907 93.6554C68.741 93.6608 68.6665 93.6987 68.6188 93.7373C68.5739 93.7781 68.5014 93.8134 68.4564 93.8186C68.4162 93.8234 68.3284 93.8788 68.2607 93.9376C68.1959 93.9986 68.1052 94.0517 68.0602 94.0569C68.0153 94.062 67.9179 94.1179 67.8454 94.1771C67.7729 94.2362 67.6831 94.294 67.6449 94.2964C67.6047 94.3012 67.5369 94.3363 67.4892 94.3749C67.4434 94.411 67.3546 94.4616 67.2935 94.482C67.2323 94.5024 67.1435 94.553 67.0958 94.5916C67.0481 94.6302 66.9603 94.6737 66.9029 94.6891C66.8446 94.6998 66.7816 94.7346 66.7606 94.762C66.7416 94.7869 66.6776 94.817 66.6221 94.83C66.5657 94.8382 66.4788 94.8863 66.4254 94.9324C66.3739 94.976 66.287 95.0241 66.2316 95.037C66.179 95.0522 66.093 95.0931 66.0453 95.1317C65.9976 95.1703 65.9108 95.2184 65.8496 95.2388C65.7903 95.2567 65.7015 95.3074 65.6538 95.3459C65.6061 95.3845 65.5202 95.4255 65.4666 95.4359C65.4102 95.4441 65.3472 95.4789 65.3225 95.5113C65.2996 95.5413 65.2241 95.5744 65.1562 95.5858C65.0931 95.5968 64.9948 95.648 64.9395 95.6966C64.887 95.7473 64.7963 95.8004 64.7332 95.8115C64.6653 95.8228 64.5947 95.8675 64.5528 95.9224C64.5071 95.9822 64.4336 96.0248 64.3456 96.0445C64.2691 96.0611 64.1861 96.1042 64.1594 96.1391C64.1308 96.1765 64.0697 96.2088 64.0209 96.2071C63.975 96.2076 63.89 96.2532 63.8309 96.3067C63.7746 96.3625 63.6791 96.4159 63.6208 96.4266C63.5625 96.4374 63.4909 96.4774 63.4623 96.5148C63.4337 96.5522 63.365 96.5826 63.2951 96.5846C63.2062 96.5877 63.1584 96.6144 63.0994 96.6917C63.0461 96.7615 62.9773 96.8038 62.8846 96.8237C62.8081 96.8403 62.725 96.8835 62.6965 96.9209C62.666 96.9608 62.6154 96.9853 62.5799 96.978C62.5445 96.9707 62.4614 97.0138 62.387 97.0754C62.3155 97.1392 62.2114 97.1979 62.155 97.2062C62.0996 97.2191 62.028 97.2592 61.9994 97.2966C61.967 97.339 61.903 97.3691 61.8542 97.3673C61.7987 97.3684 61.7252 97.4109 61.6461 97.4847C61.5822 97.5504 61.4858 97.611 61.4322 97.6215C61.3835 97.6316 61.2966 97.6797 61.2413 97.7283C61.1869 97.7815 61.0838 97.8449 61.0074 97.8734C60.9157 97.91 60.8499 97.9663 60.8004 98.043C60.729 98.1543 60.73 98.159 60.8307 98.2478C60.9085 98.3191 60.9717 98.3437 61.0923 98.3528C61.2923 98.3714 61.6069 98.3472 61.6317 98.3148C61.6431 98.2998 61.7702 98.2706 61.9108 98.2476C62.0542 98.2269 62.1842 98.188 62.2013 98.1655C62.2204 98.1406 62.3313 98.1147 62.4527 98.1049C62.5742 98.095 62.6851 98.0691 62.6984 98.0517C62.7136 98.0317 62.8465 97.995 62.9889 97.9696C63.1362 97.9438 63.2719 97.8975 63.2966 97.865C63.3214 97.8326 63.373 97.8128 63.4141 97.8245C63.4543 97.8315 63.527 97.808 63.5699 97.7698C63.6176 97.7312 63.6931 97.698 63.739 97.6975C63.7897 97.6968 63.8575 97.6736 63.8957 97.6475C63.9329 97.6167 64.0112 97.5857 64.0677 97.5774C64.1231 97.5645 64.1814 97.5419 64.1966 97.522C64.2347 97.4721 64.5778 97.3749 64.6382 97.3973C64.6669 97.4074 64.7127 97.3832 64.7432 97.3433C64.7756 97.3009 64.8444 97.2705 64.9142 97.2686C64.9792 97.2669 65.0509 97.2387 65.0776 97.2038C65.1023 97.1714 65.1797 97.1357 65.2524 97.1241C65.3298 97.1122 65.4043 97.0743 65.4424 97.0245C65.4786 96.9771 65.5588 96.9318 65.64 96.9149C65.7165 96.8982 65.7958 96.8601 65.8167 96.8327C65.8396 96.8027 65.8998 96.7776 65.9457 96.7772C65.9964 96.7764 66.0728 96.7479 66.1186 96.7118C66.1596 96.6761 66.2351 96.6429 66.2848 96.6374C66.3317 96.6298 66.41 96.5988 66.4491 96.5655C66.493 96.5319 66.5675 96.5059 66.6182 96.5052C66.6661 96.5022 66.7301 96.4721 66.7605 96.4322C66.7891 96.3948 66.855 96.3622 66.9009 96.3618C66.9516 96.361 67.0281 96.3325 67.0739 96.2965C67.1149 96.2607 67.1903 96.2275 67.2401 96.222C67.2898 96.2166 67.3786 96.166 67.4367 96.1077C67.4978 96.0517 67.5933 95.9983 67.6497 95.99C67.7051 95.9771 67.771 95.9445 67.7939 95.9146C67.8167 95.8847 67.8922 95.8515 67.9649 95.8399C68.0356 95.8308 68.113 95.7951 68.1358 95.7652C68.1606 95.7328 68.2284 95.6977 68.2867 95.687C68.345 95.6762 68.4405 95.6228 68.4968 95.5671C68.5559 95.5135 68.6409 95.4679 68.6868 95.4674C68.7356 95.4692 68.7929 95.4419 68.8158 95.4119C68.8367 95.3845 68.916 95.3464 68.9925 95.3298C69.069 95.3131 69.1482 95.275 69.173 95.2426C69.1977 95.2102 69.2598 95.1826 69.3077 95.1796C69.3603 95.1764 69.45 95.1304 69.5063 95.0747C69.5673 95.0186 69.6561 94.968 69.7097 94.9576C69.7584 94.9474 69.8425 94.909 69.8902 94.8704C69.9379 94.8318 70.0171 94.7937 70.0669 94.7882C70.1137 94.7806 70.2063 94.7249 70.2693 94.6664C70.3398 94.5979 70.4133 94.5554 70.465 94.5593C70.5167 94.5632 70.5854 94.521 70.6522 94.4574C70.7074 94.397 70.8029 94.3436 70.8679 94.3301C70.9282 94.3168 71.0026 94.279 71.0312 94.2416C71.0598 94.2042 71.1238 94.1741 71.1745 94.1733C71.2252 94.1726 71.3083 94.1294 71.3683 94.0687C71.4275 94.0152 71.5201 93.9595 71.5755 93.9466C71.6309 93.9337 71.7293 93.8706 71.7941 93.8096C71.8647 93.7411 71.9449 93.6957 72.0004 93.6947C72.0463 93.6942 72.1122 93.6616 72.1407 93.6242C72.1693 93.5868 72.2505 93.5462 72.3213 93.537C72.415 93.5217 72.4732 93.4873 72.5341 93.4075C72.5932 93.3302 72.6467 93.296 72.7069 93.2946C72.7576 93.2939 72.8378 93.2485 72.9027 93.1875C72.9656 93.129 73.0582 93.0734 73.1117 93.0629C73.1653 93.0525 73.2579 92.9969 73.3179 92.9362C73.379 92.8801 73.4754 92.8195 73.5356 92.8063C73.593 92.7909 73.6923 92.7325 73.7504 92.6742C73.8105 92.6135 73.9079 92.5576 73.9662 92.5469C74.0293 92.5358 74.1018 92.4886 74.1437 92.4337C74.1876 92.3764 74.2582 92.3316 74.3309 92.32C74.4006 92.3062 74.4866 92.2534 74.5561 92.1802C74.6171 92.1123 74.705 92.0569 74.7547 92.0515C74.8044 92.046 74.8989 91.9879 74.9638 91.9269C75.0305 91.8634 75.1269 91.8028 75.1757 91.7926C75.2292 91.7822 75.3171 91.7269 75.3752 91.6687C75.4334 91.6104 75.5308 91.5545 75.5939 91.5435C75.657 91.5325 75.7324 91.4874 75.7686 91.44C75.8029 91.3951 75.9031 91.3296 75.9929 91.2955C76.0942 91.2584 76.1848 91.1934 76.2363 91.126C76.2972 91.0462 76.3383 91.0223 76.389 91.0334C76.4474 91.0465 76.498 91.0101 76.6295 90.8737C76.7458 90.7453 76.8241 90.6906 76.8881 90.6842C76.9446 90.676 77.0257 90.6235 77.0953 90.5503C77.1592 90.4846 77.247 90.4292 77.2938 90.4216C77.3502 90.4134 77.439 90.3509 77.5448 90.2422C77.6516 90.1263 77.7384 90.0663 77.7948 90.058C77.8446 90.0526 77.9343 89.9948 78.0029 89.9288C78.0687 89.8605 78.1604 89.8002 78.2101 89.7948C78.2694 89.7887 78.3553 89.7241 78.463 89.6129C78.5716 89.4945 78.6537 89.4348 78.7159 89.4309C78.7771 89.4224 78.8505 89.368 78.9544 89.2499C79.0669 89.1265 79.1346 89.0796 79.2188 89.0649C79.3067 89.0452 79.3573 89.0088 79.4506 88.8866C79.5421 88.7669 79.5946 88.728 79.6787 88.7133C79.7552 88.6967 79.8315 88.6445 79.9421 88.5236C80.0383 88.4155 80.1328 88.3455 80.1921 88.3276C80.2523 88.3144 80.3572 88.2366 80.4545 88.1332C80.5641 88.0195 80.6509 87.9595 80.7074 87.9513C80.7762 87.9447 80.8487 87.8855 81.006 87.7095C81.1508 87.5438 81.2328 87.4722 81.2921 87.4661C81.3419 87.4607 81.4249 87.3938 81.5354 87.2729C81.645 87.1473 81.7309 87.0826 81.7997 87.0641C81.8781 87.045 81.9601 86.9735 82.1412 86.7722C82.307 86.579 82.41 86.4919 82.4845 86.4659C82.5639 86.4396 82.6554 86.3555 82.8212 86.1624C82.9908 85.9642 83.0748 85.8901 83.1522 85.8663C83.2353 85.8469 83.3173 85.7635 83.5822 85.4525C83.8252 85.1643 83.9453 85.0428 84.0561 84.9813C84.1974 84.9037 84.286 84.7937 85.7394 82.8911C87.1651 81.0188 87.2727 80.872 87.3067 80.7321C87.3292 80.619 87.4215 80.4565 87.6518 80.1192C87.867 79.8018 87.9716 79.6171 87.9894 79.5281C88.0035 79.456 88.1005 79.2575 88.2061 79.0894C88.3088 78.9192 88.4172 78.7176 88.4418 78.6377C88.4664 78.5578 88.5614 78.3737 88.6489 78.2234C88.7383 78.0706 88.8172 77.9018 88.8246 77.8443C88.834 77.7843 88.8919 77.6548 88.9547 77.5488C89.0156 77.4452 89.082 77.2867 89.1046 77.1974C89.1254 77.1106 89.1719 76.9961 89.2119 76.9437C89.2471 76.8916 89.2936 76.789 89.3125 76.7165C89.3285 76.6419 89.3616 76.5329 89.3834 76.4746C89.6117 75.8118 89.7755 75.3052 89.7972 75.2112C89.8066 75.1631 89.8454 75.0348 89.8881 74.9252C89.9658 74.7042 90.031 74.4816 90.0838 74.2455C90.1026 74.1612 90.1396 74.0473 90.1642 73.9911C90.1918 73.9371 90.2173 73.85 90.221 73.7975C90.2275 73.7472 90.2633 73.5692 90.3019 73.4053C90.3755 73.0942 90.4225 72.8656 90.4628 72.616C90.476 72.5392 90.4939 72.4621 90.5053 72.4471C90.5167 72.4321 90.545 72.3116 90.5666 72.182C90.59 72.0499 90.6182 71.8937 90.6286 71.8384C90.6379 71.7784 90.6652 71.6294 90.6867 71.4998C90.7083 71.3702 90.7309 71.2571 90.7385 71.2472C90.7747 71.1998 90.9082 70.2436 90.9458 69.759C90.9604 69.5371 90.9806 69.2959 90.9861 69.2171C90.9925 69.1431 91.0109 68.94 91.0285 68.7679C91.0461 68.5957 91.073 68.328 91.0906 68.1677C91.1034 68.0077 91.1172 67.8287 91.1151 67.7718C91.113 67.7149 91.1208 67.484 91.1353 67.2621C91.1777 66.485 91.1839 66.3397 91.1864 66.2231C91.1975 65.5643 91.1969 65.6546 91.1938 64.4835C91.193 63.9656 91.1894 63.4693 91.1911 63.3837C91.1927 63.2981 91.1835 63.1252 91.1726 63.0023C91.1606 62.8748 91.1593 62.7632 91.1688 62.7507C91.1764 62.7407 91.1741 62.6245 91.1593 62.4947C91.1465 62.3625 91.1423 62.2487 91.1518 62.2362C91.1727 62.2088 91.1564 61.9199 91.1194 61.706C91.1047 61.6119 91.0966 61.4794 91.104 61.4219C91.1199 61.2879 91.0713 60.7848 91.0425 60.7628C91.031 60.754 91.0309 60.7184 91.0384 60.6847C91.0592 60.6216 91.0321 60.2336 90.9793 59.8853C90.9636 59.7746 90.9417 59.5407 90.9316 59.3632C90.9214 59.1856 90.8996 58.9518 90.881 58.8389C90.8653 58.7282 90.8583 58.6241 90.8697 58.6091C90.8906 58.5817 90.8521 58.2324 90.7906 57.8656C90.775 57.7668 90.7601 57.6133 90.7589 57.5254C90.7583 57.3473 90.71 56.9393 90.6564 56.6575C90.6379 56.5564 90.6289 56.4311 90.6402 56.3805C90.6571 56.2987 90.6131 56.0044 90.4774 55.2216C90.4608 55.1181 90.4479 54.974 90.4467 54.8981C90.4463 54.7793 90.3404 54.0351 90.2488 53.5228C90.2332 53.4358 90.2222 53.3011 90.221 53.2251C90.2244 53.0895 90.1656 52.6893 90.0809 52.2455C89.9728 51.6891 89.9132 51.3316 89.9266 51.3142C89.9418 51.2942 89.9125 51.1178 89.7517 50.2368C89.6591 49.7436 89.616 49.4541 89.592 49.1514C89.5822 49.0689 89.5596 48.8897 89.539 48.7556C89.5175 48.6167 89.4667 48.3134 89.4306 48.0804C89.3915 47.8452 89.3543 47.5838 89.3473 47.5035C89.3403 47.4231 89.3129 47.2324 89.2865 47.0819C89.2114 46.6376 89.1573 46.2132 89.1167 45.8071C89.0969 45.5945 89.0614 45.2831 89.0388 45.1158C88.9848 44.7153 88.9917 44.7718 88.9233 44.0562C88.7894 42.6627 88.7455 42.1237 88.7375 41.7465C88.7351 41.6183 88.72 41.3698 88.7012 41.1975C88.6843 41.0228 88.6652 40.7436 88.6599 40.5776C88.6545 40.4116 88.6409 40.0656 88.6314 39.8096C88.6166 39.3995 88.607 38.5234 88.6149 38.3162C88.6326 37.9112 88.6627 37.4722 88.6769 37.4238C88.6844 37.3901 88.6973 37.242 88.7083 37.0964C88.7164 36.9486 88.731 36.7386 88.745 36.6308C88.7542 36.5234 88.7708 36.3465 88.7829 36.2412C88.7921 36.1338 88.7993 36.005 88.803 35.9525C88.8037 35.8978 88.8169 35.821 88.832 35.7773C88.8472 35.7336 88.8556 35.6689 88.8536 35.6358C88.8487 35.6005 88.8589 35.5095 88.8778 35.4371C88.8938 35.3625 88.9343 35.1723 88.9662 35.0111C88.9963 34.8524 89.0322 34.7101 89.0436 34.6951C89.0531 34.6826 89.0748 34.5886 89.086 34.4905C89.1019 34.3921 89.1226 34.2934 89.1378 34.2735C89.1531 34.2536 89.1729 34.1858 89.1775 34.1261C89.1886 34.0162 89.2405 33.811 89.3408 33.4651C89.372 33.3586 89.3965 33.2549 89.3935 33.229C89.3906 33.203 89.4275 33.0772 89.471 32.9486C89.5146 32.82 89.5913 32.5943 89.6406 32.4463C89.6898 32.2983 89.7723 32.077 89.8216 31.9528C89.8709 31.8286 89.961 31.5855 90.0226 31.4154C90.1666 31.0121 90.2701 30.7633 90.3348 30.6786C90.3634 30.6412 90.4441 30.4699 90.5105 30.2995C90.5788 30.1265 90.668 29.9025 90.7097 29.8001C90.7515 29.6977 90.8636 29.4794 90.9587 29.3191C91.0539 29.1587 91.1498 28.9675 91.1687 28.8951C91.1876 28.8226 91.2855 28.6289 91.3854 28.4683C91.4843 28.303 91.5765 28.1167 91.5896 28.0518C91.6076 27.9746 91.7569 27.7254 92.0206 27.3385C92.2814 26.9494 92.4345 26.6952 92.4572 26.6059C92.4893 26.4923 92.6645 26.251 93.6237 25.0133C94.6114 23.7383 94.7485 23.5468 94.7263 23.4983C94.7119 23.4636 94.0922 22.9744 93.1887 22.2842C91.8651 21.2731 91.6656 21.1286 91.6092 21.1369Z" fill="black"/>
</svg>
